<?xml version="1.0" encoding="UTF-8" standalone="no"?>
<!-- Created with Inkscape (http://www.inkscape.org/) -->

<svg
   xmlns:dc="http://purl.org/dc/elements/1.1/"
   xmlns:cc="http://creativecommons.org/ns#"
   xmlns:rdf="http://www.w3.org/1999/02/22-rdf-syntax-ns#"
   xmlns:svg="http://www.w3.org/2000/svg"
   xmlns="http://www.w3.org/2000/svg"
   xmlns:sodipodi="http://sodipodi.sourceforge.net/DTD/sodipodi-0.dtd"
   xmlns:inkscape="http://www.inkscape.org/namespaces/inkscape"
   version="1.1"
   id="svg2"
   xml:space="preserve"
   width="733.8175"
   height="100.8"
   viewBox="0 0 733.81748 100.8"
   sodipodi:docname="RS6035_RS1550_Columbia_CNT_Irving Comp Cancer_H_W_RGB_A.svg"
   inkscape:version="0.92.3 (2405546, 2018-03-11)"
   inkscape:export-filename="C:\Users\nt0ny\development\www-icg\src\images\hiccc.png"
   inkscape:export-xdpi="600"
   inkscape:export-ydpi="600"><metadata
     id="metadata8"><rdf:RDF><cc:Work
         rdf:about=""><dc:format>image/svg+xml</dc:format><dc:type
           rdf:resource="http://purl.org/dc/dcmitype/StillImage" /><dc:title></dc:title></cc:Work></rdf:RDF></metadata><defs
     id="defs6"><clipPath
       clipPathUnits="userSpaceOnUse"
       id="clipPath30"><path
         d="M 0,792 H 1058 V 0 H 0 Z"
         id="path28"
         inkscape:connector-curvature="0" /></clipPath></defs><sodipodi:namedview
     pagecolor="#ffffff"
     bordercolor="#666666"
     borderopacity="1"
     objecttolerance="10"
     gridtolerance="10"
     guidetolerance="10"
     inkscape:pageopacity="0"
     inkscape:pageshadow="2"
     inkscape:window-width="1656"
     inkscape:window-height="774"
     id="namedview4"
     showgrid="false"
     fit-margin-top="0"
     fit-margin-left="0"
     fit-margin-right="0"
     fit-margin-bottom="0"
     inkscape:zoom="0.89393939"
     inkscape:cx="211.08985"
     inkscape:cy="-27.6539"
     inkscape:window-x="0"
     inkscape:window-y="0"
     inkscape:window-maximized="0"
     inkscape:current-layer="g10" /><g
     id="g10"
     inkscape:groupmode="layer"
     inkscape:label="RS6035_RS1550_Columbia_CNT_Irving Comp Cancer_H_W_RGB_A"
     transform="matrix(1.3333333,0,0,-1.3333333,-468.44979,652.45438)"><text
       transform="matrix(1,0,0,-1,614.1655,464.5566)"
       style="font-variant:normal;font-weight:bold;font-stretch:normal;font-size:15px;font-family:'Trajan Pro';-inkscape-font-specification:TrajanPro-Bold;writing-mode:lr-tb;fill:#ffffff;fill-opacity:1;fill-rule:nonzero;stroke:none"
       id="text18"><tspan
         x="0 12.75 25.455 34.185001 46.095001 60.689999 70.441498 77.296501 87.526497 92.776497 105.705 119.07 125.925 136.23 145.32001 156.13499 164.685 171.53999 181.85851"
         y="0"
         sodipodi:role="line"
         id="tspan12">Columbia University</tspan><tspan
         x="0 15.03 24.120001 35.16 44.91 54 64.470001 74.714996 79.964996 87.195 97.860001 108.165 115.02 128.235 140.73 145.98 158.73 171.81 186.405 196.095 207.13499 216.22501 229.98 239.07001 252.435 260.98499 267.84 278.14499 287.535"
         y="17.745001"
         sodipodi:role="line"
         id="tspan14">Herbert Irving Comprehensive </tspan><tspan
         x="0 13.2 23.43 36.645 47.970001 57.058498 68.098503 73.348503 86.098503 95.188499 108.5535 118.7985 127.8885"
         y="35.490002"
         sodipodi:role="line"
         id="tspan16">Cancer Center</tspan></text>
<g
       id="g20"
       transform="translate(598.0029,489.3408)"><path
         d="M 0,0 0.002,-75.6 H 1.197 V 0 Z"
         style="fill:#ffffff;fill-opacity:1;fill-rule:nonzero;stroke:none"
         id="path22"
         inkscape:connector-curvature="0" /></g><g
       id="g24"><g
         id="g26"
         clip-path="url(#clipPath30)"><g
           id="g32"
           transform="translate(389.2905,450.709)"><path
             d="m 0,0 c -2.025,-3.488 -4.005,-6.855 -6.483,-6.855 -0.71,0 -1.969,0.672 -1.481,2.528 l 2.336,2.359 c 0.159,0.178 0.28,0.387 0.167,0.654 L -6.94,1.809 c -0.084,0.184 -0.248,0.176 -0.425,0 l -3.125,-3.124 c -0.168,-0.17 -0.242,-0.407 -0.134,-0.661 l 0.989,-2.31 c -0.382,-1.525 -1.374,-2.637 -2.579,-2.555 -2.239,0.15 -4.057,4.405 -1.361,10.414 0.453,1.008 0.624,1.857 0.577,2.591 C -7.889,8.491 -1.314,10.99 1.188,7.829 2.689,5.937 1.989,3.43 0,0 m -21.695,-6.841 c -1.203,-0.082 -2.198,1.03 -2.579,2.555 l 0.985,2.31 c 0.112,0.254 0.037,0.491 -0.129,0.661 l -3.127,3.124 c -0.178,0.176 -0.339,0.184 -0.425,0 l -1.48,-3.123 c -0.113,-0.267 0.011,-0.476 0.168,-0.654 l 2.336,-2.359 c 0.487,-1.856 -0.771,-2.528 -1.481,-2.528 -2.478,0 -4.458,3.367 -6.482,6.855 -1.99,3.43 -2.689,5.937 -1.19,7.829 2.503,3.161 9.078,0.662 14.186,-1.665 -0.048,-0.734 0.124,-1.583 0.577,-2.591 2.698,-6.009 0.879,-10.264 -1.359,-10.414 m 8.357,15.4 c -0.373,-0.119 -0.758,-0.011 -1.095,0.259 -0.29,0.242 -0.596,0.447 -0.897,0.624 0.934,0.554 1.562,1.573 1.562,2.736 0,1.593 -1.167,2.908 -2.693,3.147 l 1.171,1.511 c 0.116,0.15 0.116,0.394 0,0.544 l -1.454,1.877 c -0.057,0.076 -0.132,0.108 -0.212,0.108 -0.075,0 -0.152,-0.032 -0.212,-0.108 l -1.451,-1.877 c -0.117,-0.15 -0.117,-0.394 0,-0.544 l 1.169,-1.512 c -1.526,-0.239 -2.693,-1.553 -2.693,-3.146 0,-1.163 0.628,-2.182 1.565,-2.736 -0.302,-0.177 -0.608,-0.382 -0.899,-0.624 -0.336,-0.27 -0.721,-0.378 -1.094,-0.259 -6.627,2.119 -12.48,4.16 -15.804,0.901 -3.982,-3.908 0.652,-10.224 2.112,-12.822 1.022,-1.825 1.749,-3.949 1.749,-5.635 h 31.119 c 0,1.686 0.725,3.81 1.747,5.635 1.46,2.598 6.096,8.914 2.112,12.822 -3.325,3.259 -9.174,1.218 -15.802,-0.901 m -19.174,-22.331 h 31.115 v 2.562 h -31.115 z m 215.893,8.448 h -5.004 c -0.108,0 -0.136,0.083 -0.108,0.191 l 2.502,6.692 c 0.028,0.106 0.081,0.244 0.163,0.244 0.081,0 0.107,-0.138 0.138,-0.244 l 2.448,-6.72 c 0.025,-0.08 0,-0.163 -0.139,-0.163 m 9.194,-7.97 c -0.326,0 -0.734,0.028 -1.143,0.11 -0.57,0.134 -1.359,0.517 -2.395,2.964 -1.74,4.135 -6.091,15.231 -6.744,16.727 -0.27,0.625 -0.434,0.871 -0.677,0.871 -0.273,0 -0.437,-0.3 -0.764,-1.089 l -6.827,-17.08 c -0.542,-1.358 -1.06,-2.283 -2.311,-2.445 -0.216,-0.03 -0.596,-0.058 -0.842,-0.058 -0.219,0 -0.328,-0.052 -0.328,-0.216 0,-0.218 0.165,-0.273 0.518,-0.273 1.414,0 2.911,0.083 3.208,0.083 0.846,0 2.014,-0.083 2.885,-0.083 0.299,0 0.462,0.055 0.462,0.273 0,0.164 -0.083,0.216 -0.409,0.216 H 176.8 c -0.843,0 -1.088,0.356 -1.088,0.846 0,0.325 0.136,0.977 0.409,1.657 l 1.469,3.89 c 0.053,0.163 0.108,0.215 0.243,0.215 h 6.066 c 0.135,0 0.217,-0.052 0.272,-0.187 l 2.176,-5.767 c 0.137,-0.325 -0.053,-0.571 -0.247,-0.626 -0.269,-0.028 -0.379,-0.08 -0.379,-0.244 0,-0.19 0.324,-0.19 0.816,-0.218 2.176,-0.055 4.163,-0.055 5.139,-0.055 1.008,0 1.252,0.055 1.252,0.273 0,0.191 -0.136,0.216 -0.353,0.216 m -55.637,0 c -0.352,0 -0.898,0.028 -1.687,0.274 -0.814,0.245 -1.086,1.034 -1.332,2.748 l -2.475,16.804 c -0.08,0.572 -0.244,0.846 -0.49,0.846 -0.243,0 -0.408,-0.218 -0.597,-0.653 l -7.399,-15.53 -7.423,15.337 c -0.354,0.709 -0.516,0.846 -0.735,0.846 -0.217,0 -0.381,-0.246 -0.461,-0.708 l -2.693,-17.733 c -0.136,-0.923 -0.353,-1.987 -1.116,-2.148 -0.405,-0.083 -0.596,-0.083 -0.815,-0.083 -0.272,0 -0.435,-0.052 -0.435,-0.188 0,-0.246 0.218,-0.301 0.489,-0.301 0.87,0 2.176,0.085 2.692,0.085 0.49,0 1.715,-0.085 2.856,-0.085 0.408,0 0.653,0.055 0.653,0.301 0,0.136 -0.19,0.188 -0.407,0.188 -0.273,0 -0.653,0.028 -1.144,0.138 -0.462,0.106 -0.816,0.352 -0.816,0.871 0,0.433 0.028,0.788 0.084,1.276 l 1.412,10.823 h 0.109 c 0.951,-2.036 2.584,-5.464 2.83,-6.035 0.325,-0.761 2.475,-4.925 3.126,-6.173 0.436,-0.817 0.709,-1.361 0.951,-1.361 0.247,0 0.382,0.245 1.008,1.524 l 5.929,12.347 h 0.107 l 1.634,-11.968 c 0.108,-0.758 0.026,-1.113 -0.136,-1.168 -0.191,-0.08 -0.3,-0.164 -0.3,-0.299 0,-0.163 0.163,-0.244 0.789,-0.3 1.087,-0.081 4.841,-0.164 5.521,-0.164 0.381,0 0.707,0.083 0.707,0.301 0,0.163 -0.191,0.188 -0.436,0.188 m 11.988,0.654 c -0.624,0 -1.249,0.03 -1.984,0.327 -0.869,0.353 -0.952,0.816 -0.952,2.61 v 6.444 c 0,0.137 0.055,0.192 0.163,0.192 0.408,0 0.681,0 1.171,-0.026 1.06,-0.054 1.686,-0.244 2.256,-0.654 2.067,-1.44 2.638,-3.727 2.638,-5.41 0,-2.829 -2.068,-3.483 -3.292,-3.483 M 145.99,5.147 c 0,0.3 0.055,0.407 0.245,0.462 0.271,0.055 0.516,0.055 0.896,0.055 2.341,0 3.402,-2.393 3.402,-4.216 0,-1.332 -0.408,-2.312 -1.116,-2.883 -0.461,-0.408 -1.062,-0.517 -1.959,-0.517 -0.624,0 -1.032,0.029 -1.278,0.083 -0.107,0.026 -0.19,0.081 -0.19,0.3 z m 4.624,-7.207 c 1.495,1.196 2.774,2.53 2.774,4.757 0,1.444 -0.871,4.081 -5.793,4.081 -0.926,0 -1.986,-0.079 -3.319,-0.079 -0.544,0 -2.256,0.079 -3.697,0.079 -0.408,0 -0.6,-0.053 -0.6,-0.246 0,-0.187 0.164,-0.243 0.463,-0.243 0.38,0 0.843,-0.026 1.06,-0.079 0.897,-0.192 1.117,-0.628 1.17,-1.552 0.055,-0.873 0.055,-1.633 0.055,-5.766 v -4.788 c 0,-2.502 0,-4.652 -0.137,-5.792 -0.108,-0.79 -0.245,-1.386 -0.787,-1.496 -0.246,-0.052 -0.572,-0.11 -0.981,-0.11 -0.325,0 -0.436,-0.079 -0.436,-0.216 0,-0.19 0.193,-0.273 0.544,-0.273 1.09,0 2.802,0.083 3.428,0.083 0.815,0 3.29,-0.163 3.944,-0.163 5.004,0 7.26,3.017 7.26,5.93 0,3.182 -2.718,5.111 -4.948,5.873 M 83.311,-9.538 c -0.217,0 -0.27,-0.165 -0.299,-0.408 -0.054,-0.519 -0.38,-1.279 -0.706,-1.633 -0.68,-0.734 -1.742,-0.76 -3.183,-0.76 -2.122,0 -2.827,0.19 -3.29,0.599 -0.572,0.487 -0.572,2.363 -0.572,5.845 v 4.787 c 0,4.133 0,4.895 0.055,5.766 0.055,0.951 0.271,1.415 1.006,1.55 0.326,0.053 0.761,0.079 1.06,0.079 0.327,0 0.491,0.058 0.491,0.245 0,0.193 -0.192,0.246 -0.573,0.246 -1.06,0 -3.045,-0.086 -3.697,-0.086 -0.734,0 -2.45,0.086 -3.727,0.086 -0.409,0 -0.598,-0.053 -0.598,-0.246 0,-0.187 0.162,-0.245 0.462,-0.245 0.353,0 0.679,-0.026 0.897,-0.079 0.897,-0.188 1.117,-0.626 1.17,-1.55 0.055,-0.871 0.055,-1.633 0.055,-5.766 v -4.787 c 0,-2.503 0,-4.653 -0.137,-5.793 -0.108,-0.788 -0.245,-1.386 -0.788,-1.496 -0.246,-0.052 -0.573,-0.11 -0.979,-0.11 -0.327,0 -0.435,-0.079 -0.435,-0.216 0,-0.188 0.191,-0.273 0.544,-0.273 1.086,0 2.802,0.085 3.427,0.085 2.204,0 3.996,-0.165 7.914,-0.165 1.414,0 1.55,0.135 1.712,0.734 0.218,0.79 0.409,2.829 0.409,3.128 0,0.327 -0.027,0.463 -0.218,0.463 m 84.56,-3.756 c -0.408,0 -1.006,0.058 -1.387,0.11 -0.816,0.11 -1.006,0.598 -1.088,1.334 -0.11,1.168 -0.11,3.318 -0.11,5.955 v 4.787 c 0,4.133 0,4.895 0.054,5.764 0.056,0.953 0.272,1.417 1.007,1.554 0.327,0.053 0.542,0.079 0.817,0.079 0.271,0 0.434,0.056 0.434,0.273 0,0.163 -0.217,0.216 -0.571,0.216 -1.034,0 -2.639,-0.08 -3.318,-0.08 -0.791,0 -2.501,0.08 -3.537,0.08 -0.433,0 -0.652,-0.053 -0.652,-0.216 0,-0.217 0.165,-0.273 0.435,-0.273 0.327,0 0.681,-0.026 0.98,-0.109 0.598,-0.137 0.869,-0.598 0.926,-1.524 0.053,-0.869 0.053,-1.631 0.053,-5.764 v -4.787 c 0,-2.637 0,-4.787 -0.136,-5.929 -0.082,-0.788 -0.245,-1.25 -0.789,-1.36 -0.244,-0.052 -0.572,-0.11 -0.977,-0.11 -0.327,0 -0.436,-0.079 -0.436,-0.216 0,-0.188 0.189,-0.273 0.544,-0.273 1.088,0 2.798,0.085 3.425,0.085 0.734,0 2.448,-0.085 4.245,-0.085 0.297,0 0.517,0.085 0.517,0.273 0,0.137 -0.137,0.216 -0.436,0.216 M 107.238,6.778 c -1.062,0 -2.776,-0.08 -3.101,-0.08 -0.028,0 -1.741,0.08 -3.128,0.08 -0.381,0 -0.57,-0.053 -0.57,-0.246 0,-0.187 0.163,-0.243 0.46,-0.243 0.301,0 0.762,-0.026 0.981,-0.079 0.898,-0.19 1.114,-0.628 1.169,-1.554 0.054,-0.869 0.054,-1.631 0.054,-5.764 v -3.4 c 0,-2.802 -0.082,-5.251 -1.578,-6.743 -1.086,-1.088 -2.555,-1.471 -3.752,-1.471 -0.925,0 -2.176,0.11 -3.4,1.118 -1.331,1.085 -2.122,2.746 -2.122,6.688 v 3.808 c 0,4.133 0,4.895 0.055,5.764 0.055,0.953 0.272,1.417 1.007,1.554 0.327,0.053 0.49,0.079 0.789,0.079 0.271,0 0.434,0.056 0.434,0.243 0,0.193 -0.19,0.246 -0.598,0.246 -0.979,0 -2.691,-0.08 -3.345,-0.08 -0.817,0 -2.53,0.08 -3.971,0.08 -0.408,0 -0.598,-0.053 -0.598,-0.246 0,-0.187 0.164,-0.243 0.461,-0.243 0.382,0 0.846,-0.026 1.062,-0.079 0.898,-0.19 1.115,-0.628 1.168,-1.554 0.056,-0.869 0.056,-1.631 0.056,-5.764 v -3.97 c 0,-3.943 1.035,-5.957 2.422,-7.207 1.984,-1.797 4.594,-1.877 6.036,-1.877 1.768,0 3.727,0.299 5.657,1.957 2.285,1.959 2.585,5.167 2.585,8.186 v 2.911 c 0,4.133 0,4.895 0.053,5.764 0.055,0.953 0.271,1.417 1.006,1.554 0.327,0.053 0.49,0.079 0.789,0.079 0.327,0 0.49,0.056 0.49,0.243 0,0.193 -0.191,0.246 -0.571,0.246 M 55.402,-12.804 c -5.221,0 -8.349,4.491 -8.349,10.144 0,6.773 3.561,8.514 6.691,8.514 4.46,0 7.97,-3.781 7.97,-9.873 0,-7.858 -4.408,-8.785 -6.312,-8.785 M 54.533,7.161 c -8.16,0 -11.234,-6.011 -11.234,-10.662 0,-4.812 3.154,-10.661 10.961,-10.661 6.907,0 11.26,4.924 11.26,11.15 0,6.228 -4.216,10.173 -10.987,10.173 M 38.912,-7.751 c -0.261,0 -0.327,-0.131 -0.424,-0.652 -0.129,-0.583 -0.551,-1.528 -1.104,-2.143 -1.301,-1.496 -3.056,-1.822 -5.95,-1.822 -4.355,0 -10.239,3.836 -10.239,11.571 0,3.153 0.618,6.241 2.992,8.418 1.429,1.302 3.284,2.019 6.11,2.019 2.99,0 5.525,-0.879 6.599,-2.019 0.814,-0.844 1.236,-1.981 1.268,-2.987 0,-0.456 0.065,-0.717 0.324,-0.717 0.293,0 0.357,0.261 0.39,0.747 0.066,0.65 0.034,2.439 0.099,3.512 0.064,1.137 0.163,1.528 0.163,1.787 0,0.193 -0.132,0.356 -0.489,0.391 -0.976,0.097 -2.015,0.39 -3.251,0.552 -1.495,0.195 -2.698,0.323 -4.713,0.323 -4.844,0 -7.932,-1.299 -10.27,-3.443 -3.122,-2.86 -3.807,-6.695 -3.807,-8.907 0,-3.153 0.848,-6.794 4.034,-9.588 2.958,-2.569 6.697,-3.542 11.149,-3.542 2.081,0 4.551,0.225 5.849,0.747 0.554,0.226 0.686,0.388 0.846,0.941 0.326,1.106 0.717,3.934 0.717,4.325 0,0.258 -0.065,0.487 -0.293,0.487"
             style="fill:#ffffff;fill-opacity:1;fill-rule:nonzero;stroke:none"
             id="path34"
             inkscape:connector-curvature="0" /></g></g></g></g></svg>