<?xml version="1.0" encoding="UTF-8" standalone="no"?>
<!-- Created with Inkscape (http://www.inkscape.org/) -->

<svg
   xmlns:dc="http://purl.org/dc/elements/1.1/"
   xmlns:cc="http://creativecommons.org/ns#"
   xmlns:rdf="http://www.w3.org/1999/02/22-rdf-syntax-ns#"
   xmlns:svg="http://www.w3.org/2000/svg"
   xmlns="http://www.w3.org/2000/svg"
   xmlns:sodipodi="http://sodipodi.sourceforge.net/DTD/sodipodi-0.dtd"
   xmlns:inkscape="http://www.inkscape.org/namespaces/inkscape"
   version="1.1"
   id="svg2"
   xml:space="preserve"
   width="55.995136"
   height="44.1828"
   viewBox="0 0 55.995136 44.182798"
   sodipodi:docname="crown-white.svg"
   inkscape:version="0.92.5 (2060ec1f9f, 2020-04-08)"><metadata
     id="metadata8"><rdf:RDF><cc:Work
         rdf:about=""><dc:format>image/svg+xml</dc:format><dc:type
           rdf:resource="http://purl.org/dc/dcmitype/StillImage" /><dc:title /></cc:Work></rdf:RDF></metadata><defs
     id="defs6"><clipPath
       clipPathUnits="userSpaceOnUse"
       id="clipPath20"><path
         d="M 0,0 H 4758.41 V 592.559 H 0 Z"
         id="path18"
         inkscape:connector-curvature="0" /></clipPath></defs><sodipodi:namedview
     pagecolor="#ffffff"
     bordercolor="#666666"
     borderopacity="1"
     objecttolerance="10"
     gridtolerance="10"
     guidetolerance="10"
     inkscape:pageopacity="0"
     inkscape:pageshadow="2"
     inkscape:window-width="1920"
     inkscape:window-height="1013"
     id="namedview4"
     showgrid="false"
     fit-margin-top="0"
     fit-margin-left="0"
     fit-margin-right="0"
     fit-margin-bottom="0"
     inkscape:zoom="1.6817101"
     inkscape:cx="-176.527"
     inkscape:cy="61.219148"
     inkscape:window-x="-9"
     inkscape:window-y="-9"
     inkscape:window-maximized="1"
     inkscape:current-layer="g16" /><g
     id="g10"
     inkscape:groupmode="layer"
     inkscape:label="Columbia_CUIMC_H_B_RGB_A"
     transform="matrix(1.3333333,0,0,-1.3333333,-3.2394079e-5,64.213998)"><g
       id="g12"
       transform="scale(0.1)"><g
         id="g14"><g
           id="g16"
           clip-path="url(#clipPath20)"><path
             d="m 379.535,287.961 c -20.25,-34.887 -40.055,-68.559 -64.828,-68.559 -7.105,0 -19.691,6.731 -14.816,25.286 l 23.359,23.593 c 1.598,1.778 2.809,3.867 1.676,6.532 l -14.789,31.234 c -0.84,1.844 -2.481,1.766 -4.25,0 l -31.254,-31.242 c -1.676,-1.7 -2.418,-4.063 -1.332,-6.602 l 9.883,-23.105 c -3.817,-15.246 -13.743,-26.368 -25.793,-25.547 -22.387,1.496 -40.563,44.051 -13.61,104.14 4.539,10.079 6.246,18.567 5.774,25.911 51.093,23.269 116.836,48.257 141.859,16.648 15.012,-18.926 8.016,-43.992 -11.879,-78.289 z m -216.953,-68.41 c -12.031,-0.821 -21.973,10.301 -25.785,25.547 l 9.851,23.105 c 1.114,2.539 0.364,4.902 -1.293,6.602 l -31.273,31.242 c -1.777,1.766 -3.391,1.844 -4.242,0 L 95.0352,274.813 c -1.1289,-2.665 0.1093,-4.754 1.6836,-6.532 l 23.3592,-23.593 c 4.863,-18.555 -7.711,-25.286 -14.816,-25.286 -24.7737,0 -44.5784,33.672 -64.8128,68.559 -19.9023,34.297 -26.8945,59.363 -11.8984,78.289 25.0273,31.609 90.7692,6.621 141.8512,-16.648 -0.476,-7.344 1.246,-15.832 5.774,-25.911 26.98,-60.089 8.789,-102.644 -13.594,-104.14 z m 83.57,153.996 c -3.73,-1.184 -7.578,-0.109 -10.949,2.598 -2.894,2.41 -5.961,4.46 -8.969,6.238 9.336,5.539 15.625,15.722 15.625,27.351 0,15.93 -11.668,29.082 -26.933,31.477 l 11.715,15.105 c 1.152,1.504 1.152,3.95 0,5.442 l -14.547,18.769 c -0.567,0.762 -1.324,1.078 -2.114,1.078 -0.757,0 -1.531,-0.316 -2.125,-1.078 l -14.507,-18.769 c -1.176,-1.492 -1.176,-3.938 0,-5.442 l 11.683,-15.117 c -15.254,-2.39 -26.922,-15.535 -26.922,-31.465 0,-11.629 6.282,-21.812 15.649,-27.351 -3.028,-1.778 -6.082,-3.828 -8.988,-6.238 -3.368,-2.707 -7.211,-3.782 -10.95,-2.598 -66.265,21.187 -124.7927,41.598 -158.0387,9.012 -39.8204,-39.082 6.5234,-102.239 21.121,-128.223 10.2227,-18.25 17.4922,-39.484 17.4922,-56.348 H 365.586 c 0,16.864 7.25,38.098 17.469,56.348 14.597,25.984 60.957,89.141 21.121,128.223 -33.254,32.586 -91.738,12.175 -158.024,-9.012 z M 54.418,150.234 H 365.57 v 25.618 H 54.418 Z"
             style="fill:#ffffff;fill-opacity:1;fill-rule:nonzero;stroke:none;opacity:0.15"
             id="path98"
             inkscape:connector-curvature="0"
             sodipodi:nodetypes="csccccccccccccccccccccccsccccccccsccccsccccsccccccccccccccc" /></g></g></g></g></svg>