<?xml version="1.0" encoding="UTF-8" standalone="no"?>
<svg
   xmlns:dc="http://purl.org/dc/elements/1.1/"
   xmlns:cc="http://creativecommons.org/ns#"
   xmlns:rdf="http://www.w3.org/1999/02/22-rdf-syntax-ns#"
   xmlns:svg="http://www.w3.org/2000/svg"
   xmlns="http://www.w3.org/2000/svg"
   xmlns:sodipodi="http://sodipodi.sourceforge.net/DTD/sodipodi-0.dtd"
   xmlns:inkscape="http://www.inkscape.org/namespaces/inkscape"
   xml:space="preserve"
   viewBox="0 0 26 26"
   version="1.1"
   id="Слой_1"
   enable-background="new 0 0 26 26"
   sodipodi:docname="generic.svg"
   inkscape:version="0.92.5 (2060ec1f9f, 2020-04-08)"
   width="26"
   height="26"><sodipodi:namedview
     pagecolor="#ffffff"
     bordercolor="#666666"
     borderopacity="1"
     objecttolerance="10"
     gridtolerance="10"
     guidetolerance="10"
     inkscape:pageopacity="0"
     inkscape:pageshadow="2"
     inkscape:window-width="1517"
     inkscape:window-height="898"
     id="namedview6"
     showgrid="false"
     inkscape:zoom="18.153846"
     inkscape:cx="14.052377"
     inkscape:cy="11.291538"
     inkscape:window-x="0"
     inkscape:window-y="0"
     inkscape:window-maximized="0"
     inkscape:current-layer="Слой_1"
     fit-margin-top="0"
     fit-margin-left="0"
     fit-margin-right="0"
     fit-margin-bottom="0" /><metadata
     id="metadata9"><rdf:RDF><cc:Work
         rdf:about=""><dc:format>image/svg+xml</dc:format><dc:type
           rdf:resource="http://purl.org/dc/dcmitype/StillImage" /><dc:title></dc:title></cc:Work></rdf:RDF></metadata><defs
     id="defs7" /><rect
     style="opacity:0.9;fill:#f9f9f9;fill-opacity:1;stroke:none;stroke-width:7.55905533;stroke-linecap:round;stroke-linejoin:miter;stroke-miterlimit:4;stroke-dasharray:none;stroke-opacity:1;paint-order:stroke markers fill"
     id="rect812"
     width="26"
     height="26"
     x="0"
     y="0" /><path
     style="fill:#ececec"
     id="path3"
     d="M 16.803589,14.46051 C 18.885681,13.179382 20.28125,10.888184 20.28125,8.2719727 20.28125,4.262207 17.014648,1 13,1 8.9853516,1 5.71875,4.262207 5.71875,8.2719727 c 0,2.6162113 1.3955688,4.9074093 3.4776611,6.1885373 C 4.7006225,15.467651 1.5458984,18.218872 1.5458984,21.54834 1.5458984,24.272949 8.7460938,25 13,25 c 4.253906,0 11.454102,-0.727051 11.454102,-3.45166 0,-3.329468 -3.154725,-6.080689 -7.650513,-7.08783 z M 7.21875,8.2719727 C 7.21875,5.0893555 9.8125,2.5 13,2.5 c 3.1875,0 5.78125,2.5893555 5.78125,5.7719727 0,3.1826173 -2.59375,5.7714843 -5.78125,5.7714843 -3.1875,0 -5.78125,-2.588867 -5.78125,-5.7714843 z M 13,23.5 C 6.8850098,23.5 3.2246094,22.210022 3.0463257,21.543274 3.0509644,18.234558 7.5145874,15.543457 13,15.543457 c 5.484863,0 9.94812,2.690613 9.953613,5.99884 C 22.779785,22.208557 19.119019,23.5 13,23.5 Z"
     inkscape:connector-curvature="0" /></svg>