<?xml version="1.0" encoding="UTF-8" standalone="no"?>
<svg
   xmlns:dc="http://purl.org/dc/elements/1.1/"
   xmlns:cc="http://creativecommons.org/ns#"
   xmlns:rdf="http://www.w3.org/1999/02/22-rdf-syntax-ns#"
   xmlns:svg="http://www.w3.org/2000/svg"
   xmlns="http://www.w3.org/2000/svg"
   id="svg93"
   version="1.2"
   viewBox="0 0 587.77248 59.25781"
   height="20.904837mm"
   width="207.35306mm">
  <metadata
     id="metadata97">
    <rdf:RDF>
      <cc:Work
         rdf:about="">
        <dc:format>image/svg+xml</dc:format>
        <dc:type
           rdf:resource="http://purl.org/dc/dcmitype/StillImage" />
        <dc:title></dc:title>
      </cc:Work>
    </rdf:RDF>
  </metadata>
  <defs
     id="defs8">
    <clipPath
       id="clip1">
      <path
         id="path2"
         d="m 246,782.74219 h 2 V 842 h -2 z m 0,0" />
    </clipPath>
    <clipPath
       id="clip2">
      <path
         id="path5"
         d="m 465,817 h 10.83984 v 10 H 465 Z m 0,0" />
    </clipPath>
  </defs>
  <g
     transform="translate(-4.4426256,-782.74219)"
     id="surface40">
    <g
       style="clip-rule:nonzero;fill:#ffffff"
       id="g12"
       clip-path="url(#clip1)">
      <path
         id="path10"
         d="M 246.66406,782.74219 246.66797,842 h 1.19531 v -59.25781 h -1.19922"
         style="fill:#ffffff;fill-opacity:1;fill-rule:nonzero;stroke:none" />
    </g>
    <path
       id="path90"
       d="m 42.395014,813.20312 c -2.023437,3.48829 -4.003906,6.85547 -6.484375,6.85547 -0.707031,0 -1.96875,-0.67187 -1.480469,-2.52734 l 2.335938,-2.35938 c 0.160156,-0.17968 0.28125,-0.38671 0.167969,-0.65234 l -1.476563,-3.125 c -0.08594,-0.18359 -0.25,-0.17578 -0.425781,0 l -3.125,3.125 c -0.167969,0.17188 -0.242188,0.40625 -0.132813,0.66016 l 0.988282,2.30859 c -0.382813,1.52734 -1.375,2.64063 -2.582032,2.55469 -2.238281,-0.14844 -4.054687,-4.40235 -1.359375,-10.41016 0.453125,-1.01172 0.625,-1.85937 0.578125,-2.59375 5.109375,-2.32422 11.683594,-4.82422 14.183594,-1.66406 1.503906,1.89453 0.800781,4.39844 -1.1875,7.82812 z m -21.695312,6.83985 c -1.203125,0.0859 -2.195313,-1.02735 -2.578125,-2.55469 l 0.984375,-2.30859 c 0.113281,-0.25391 0.03906,-0.48828 -0.128907,-0.66016 l -3.128906,-3.125 c -0.175781,-0.17578 -0.335937,-0.18359 -0.421875,0 l -1.480469,3.125 c -0.113281,0.26563 0.01172,0.47266 0.167969,0.65234 l 2.335938,2.35938 c 0.484375,1.85547 -0.769532,2.52734 -1.480469,2.52734 -2.476563,0 -4.457031,-3.36718 -6.4843748,-6.85547 -1.9882807,-3.42968 -2.6874997,-5.93359 -1.1875,-7.82812 2.503906,-3.16016 9.0781248,-0.66016 14.1835938,1.66406 -0.04687,0.73438 0.125,1.58203 0.578125,2.59375 2.699218,6.00781 0.878906,10.26172 -1.359375,10.41016 z m 8.355468,-15.39844 c -0.371093,0.12109 -0.757812,0.0117 -1.09375,-0.25781 -0.289062,-0.24219 -0.59375,-0.44531 -0.894531,-0.625 0.933594,-0.55469 1.5625,-1.57031 1.5625,-2.73438 0,-1.59375 -1.167969,-2.91015 -2.695312,-3.14843 l 1.171875,-1.51172 c 0.117187,-0.14844 0.117187,-0.39453 0,-0.54297 l -1.453125,-1.875 c -0.05859,-0.0781 -0.132813,-0.10938 -0.214844,-0.10938 -0.07422,0 -0.152344,0.0312 -0.210938,0.10938 l -1.449218,1.875 c -0.117188,0.14844 -0.117188,0.39453 0,0.54297 l 1.167968,1.51172 c -1.527343,0.23828 -2.691406,1.55468 -2.691406,3.14843 0,1.16407 0.625,2.17969 1.5625,2.73438 -0.300781,0.17969 -0.605469,0.38281 -0.898437,0.625 -0.335938,0.26953 -0.71875,0.3789 -1.09375,0.25781 -6.628907,-2.11719 -12.4804688,-4.16016 -15.8046875,-0.90234 -3.980469,3.91015 0.652344,10.22656 2.1132807,12.82422 1.019532,1.82421 1.746094,3.94921 1.746094,5.63671 H 41.000483 c 0,-1.6875 0.726562,-3.8125 1.746094,-5.63671 1.460937,-2.59766 6.097656,-8.91407 2.113281,-12.82422 -3.324219,-3.25782 -9.175781,-1.21485 -15.804688,0.90234 z M 9.8832952,826.97656 H 41.000483 v -2.5625 H 9.8832952 Z M 225.77783,818.52734 h -5.00391 c -0.10937,0 -0.13672,-0.082 -0.10937,-0.1914 l 2.5039,-6.69141 c 0.0273,-0.10547 0.0781,-0.24219 0.16016,-0.24219 0.082,0 0.10937,0.13672 0.13672,0.24219 l 2.44922,6.71875 c 0.0234,0.082 0,0.16406 -0.13672,0.16406 z m 9.1914,7.96875 c -0.32422,0 -0.73437,-0.0273 -1.14062,-0.10937 -0.57031,-0.13281 -1.35938,-0.51563 -2.39453,-2.96485 -1.74219,-4.13281 -6.09375,-15.22656 -6.7461,-16.72265 -0.26953,-0.625 -0.43359,-0.8711 -0.67578,-0.8711 -0.27344,0 -0.4375,0.29688 -0.76562,1.08594 l -6.82422,17.08203 c -0.54297,1.35547 -1.0625,2.28125 -2.3125,2.44532 -0.21485,0.0273 -0.59766,0.0547 -0.84375,0.0547 -0.21875,0 -0.32813,0.0547 -0.32813,0.21875 0,0.21485 0.16797,0.27344 0.51953,0.27344 1.41407,0 2.91016,-0.082 3.20704,-0.082 0.84765,0 2.01562,0.082 2.88671,0.082 0.29688,0 0.46094,-0.0586 0.46094,-0.27344 0,-0.16406 -0.082,-0.21875 -0.41015,-0.21875 h -0.40625 c -0.84375,0 -1.08985,-0.35156 -1.08985,-0.84375 0,-0.32422 0.13672,-0.97656 0.41016,-1.65625 l 1.46875,-3.89062 c 0.0547,-0.16406 0.10937,-0.21485 0.24219,-0.21485 h 6.0664 c 0.13672,0 0.21875,0.0508 0.27344,0.1875 l 2.17578,5.76563 c 0.13672,0.32422 -0.0547,0.57031 -0.24609,0.625 -0.26953,0.0273 -0.37891,0.082 -0.37891,0.24609 0,0.19141 0.32422,0.19141 0.8125,0.21485 2.17578,0.0586 4.16406,0.0586 5.14063,0.0586 1.00781,0 1.2539,-0.0586 1.2539,-0.27344 0,-0.1914 -0.13672,-0.21875 -0.35547,-0.21875 z m -55.63672,0 c -0.35156,0 -0.89843,-0.0273 -1.6875,-0.27343 -0.8125,-0.24219 -1.08593,-1.03125 -1.33203,-2.7461 l -2.47265,-16.80469 c -0.082,-0.57421 -0.2461,-0.84375 -0.49219,-0.84375 -0.24219,0 -0.40625,0.21485 -0.59766,0.65235 l -7.39843,15.52734 -7.42188,-15.33594 c -0.35156,-0.70703 -0.51562,-0.84375 -0.73437,-0.84375 -0.21875,0 -0.38282,0.2461 -0.46094,0.70704 l -2.69141,17.73437 c -0.13672,0.92188 -0.35547,1.98438 -1.11719,2.14453 -0.40625,0.082 -0.59765,0.082 -0.8164,0.082 -0.27344,0 -0.4336,0.0547 -0.4336,0.19141 0,0.24219 0.21485,0.30078 0.48829,0.30078 0.87109,0 2.17578,-0.0859 2.6914,-0.0859 0.49219,0 1.71485,0.0859 2.85547,0.0859 0.41016,0 0.65234,-0.0586 0.65234,-0.30078 0,-0.13672 -0.1875,-0.19141 -0.40625,-0.19141 -0.27343,0 -0.65234,-0.0273 -1.14453,-0.13672 -0.46093,-0.10546 -0.8125,-0.35156 -0.8125,-0.87109 0,-0.43359 0.0273,-0.78516 0.082,-1.27344 l 1.41407,-10.82422 h 0.10547 c 0.95312,2.03516 2.58593,5.46485 2.83203,6.03516 0.32422,0.76172 2.47656,4.92188 3.125,6.17188 0.4375,0.8164 0.70703,1.36328 0.95312,1.36328 0.2461,0 0.37891,-0.2461 1.00391,-1.52735 l 5.93359,-12.34375 h 0.10547 l 1.63281,11.96485 c 0.10938,0.76172 0.0273,1.11328 -0.13672,1.16797 -0.1875,0.082 -0.30078,0.16406 -0.30078,0.30078 0,0.16406 0.16407,0.24609 0.79297,0.30078 1.08594,0.082 4.83985,0.16406 5.51953,0.16406 0.38282,0 0.70703,-0.082 0.70703,-0.30078 0,-0.16406 -0.1914,-0.19141 -0.4375,-0.19141 z m 11.98829,-0.65234 c -0.625,0 -1.25,-0.0273 -1.98438,-0.32422 -0.86719,-0.35547 -0.94922,-0.81641 -0.94922,-2.61328 v -6.44141 c 0,-0.13672 0.0508,-0.1914 0.16016,-0.1914 0.41015,0 0.68359,0 1.17187,0.0234 1.0586,0.0547 1.6875,0.24219 2.25782,0.65625 2.0664,1.4375 2.63671,3.72266 2.63671,5.40625 0,2.83204 -2.0664,3.48438 -3.29296,3.48438 z m -2.9336,-17.78906 c 0,-0.29688 0.0508,-0.40235 0.24219,-0.46094 0.27344,-0.0547 0.51562,-0.0547 0.89844,-0.0547 2.33984,0 3.40234,2.39453 3.40234,4.21875 0,1.33203 -0.41016,2.3125 -1.11719,2.88281 -0.46093,0.40625 -1.0625,0.51563 -1.96093,0.51563 -0.6211,0 -1.03125,-0.0273 -1.27735,-0.082 -0.10547,-0.0273 -0.1875,-0.082 -0.1875,-0.30078 z m 4.6211,7.21093 c 1.49609,-1.19531 2.77734,-2.53125 2.77734,-4.75781 0,-1.44531 -0.87109,-4.08203 -5.79688,-4.08203 -0.92578,0 -1.98437,0.0781 -3.3164,0.0781 -0.54297,0 -2.25781,-0.0781 -3.69922,-0.0781 -0.40625,0 -0.59766,0.0547 -0.59766,0.24609 0,0.1875 0.16407,0.24219 0.46094,0.24219 0.37891,0 0.84375,0.0274 1.05859,0.0781 0.89844,0.19531 1.11719,0.6289 1.17188,1.55468 0.0547,0.8711 0.0547,1.63282 0.0547,5.76563 v 4.78906 c 0,2.5 0,4.65235 -0.13672,5.78906 -0.10938,0.78907 -0.24219,1.38672 -0.78516,1.4961 -0.24609,0.0547 -0.57422,0.10937 -0.98437,0.10937 -0.32422,0 -0.4336,0.082 -0.4336,0.21875 0,0.19141 0.19141,0.27344 0.54297,0.27344 1.08985,0 2.80469,-0.082 3.42969,-0.082 0.81641,0 3.28906,0.16016 3.94141,0.16016 5.00781,0 7.26171,-3.01563 7.26171,-5.92969 0,-3.17969 -2.71875,-5.10938 -4.94921,-5.8711 z m -67.30078,7.47657 c -0.21875,0 -0.26954,0.16406 -0.30079,0.41015 -0.0547,0.51563 -0.3789,1.27735 -0.70312,1.62891 -0.68359,0.73828 -1.74609,0.76172 -3.1875,0.76172 -2.12109,0 -2.82422,-0.19141 -3.28906,-0.59766 -0.57032,-0.48828 -0.57032,-2.36328 -0.57032,-5.84765 v -4.78516 c 0,-4.13281 0,-4.89453 0.0547,-5.76563 0.0547,-0.95312 0.26953,-1.41406 1.00391,-1.55078 0.32812,-0.0508 0.76172,-0.0781 1.0625,-0.0781 0.32812,0 0.48828,-0.0586 0.48828,-0.2461 0,-0.1914 -0.1875,-0.24609 -0.57031,-0.24609 -1.0625,0 -3.04688,0.0859 -3.69922,0.0859 -0.73438,0 -2.44922,-0.0859 -3.72656,-0.0859 -0.40625,0 -0.59766,0.0547 -0.59766,0.24609 0,0.1875 0.16406,0.2461 0.46094,0.2461 0.35547,0 0.67968,0.0273 0.89843,0.0781 0.89844,0.1875 1.11719,0.625 1.17188,1.55078 0.0547,0.8711 0.0547,1.63282 0.0547,5.76563 v 4.78516 c 0,2.5039 0,4.65625 -0.13672,5.79296 -0.10938,0.78907 -0.2461,1.38672 -0.78906,1.4961 -0.2461,0.0547 -0.57422,0.10937 -0.98047,0.10937 -0.32422,0 -0.4336,0.082 -0.4336,0.21875 0,0.1875 0.19141,0.27344 0.54297,0.27344 1.08594,0 2.80078,-0.0859 3.42969,-0.0859 2.20312,0 3.99609,0.16407 7.91016,0.16407 1.41406,0 1.55078,-0.13672 1.71484,-0.73438 0.21875,-0.78906 0.40625,-2.82812 0.40625,-3.125 0,-0.32812 -0.0234,-0.46484 -0.21484,-0.46484 z m 84.55859,3.7539 c -0.41016,0 -1.00391,-0.0547 -1.38672,-0.10937 -0.81641,-0.10938 -1.00391,-0.59766 -1.08984,-1.33203 -0.10938,-1.16797 -0.10938,-3.32032 -0.10938,-5.95703 v -4.78516 c 0,-4.13281 0,-4.89453 0.0547,-5.76563 0.0547,-0.95312 0.27344,-1.41406 1.00781,-1.55468 0.32813,-0.0508 0.54297,-0.0781 0.81641,-0.0781 0.27343,0 0.43359,-0.0547 0.43359,-0.27344 0,-0.16015 -0.21484,-0.21484 -0.57031,-0.21484 -1.03516,0 -2.64063,0.082 -3.31641,0.082 -0.79297,0 -2.5039,-0.082 -3.53906,-0.082 -0.43359,0 -0.65234,0.0547 -0.65234,0.21484 0,0.21875 0.16406,0.27344 0.4375,0.27344 0.32421,0 0.67968,0.0274 0.97656,0.10938 0.60156,0.13672 0.87109,0.59765 0.92578,1.52343 0.0547,0.8711 0.0547,1.63282 0.0547,5.76563 v 4.78516 c 0,2.63671 0,4.78906 -0.13672,5.92968 -0.082,0.78907 -0.24219,1.25 -0.78906,1.35938 -0.24219,0.0547 -0.57032,0.10937 -0.97657,0.10937 -0.32812,0 -0.43359,0.082 -0.43359,0.21875 0,0.1875 0.1875,0.27344 0.54297,0.27344 1.08594,0 2.79687,-0.0859 3.42578,-0.0859 0.73437,0 2.44531,0.0859 4.24219,0.0859 0.29687,0 0.51953,-0.0859 0.51953,-0.27344 0,-0.13672 -0.14063,-0.21875 -0.4375,-0.21875 z M 149.6333,806.42578 c -1.0625,0 -2.77735,0.082 -3.10157,0.082 -0.0273,0 -1.73828,-0.082 -3.125,-0.082 -0.38281,0 -0.57031,0.0547 -0.57031,0.24609 0,0.1875 0.16016,0.24219 0.45703,0.24219 0.30078,0 0.76172,0.0274 0.98438,0.0781 0.89453,0.1914 1.11328,0.6289 1.16797,1.55468 0.0508,0.8711 0.0508,1.63282 0.0508,5.76563 v 3.39844 c 0,2.80468 -0.0781,5.2539 -1.57813,6.74609 -1.08203,1.08594 -2.55469,1.46875 -3.75,1.46875 -0.92578,0 -2.17578,-0.10937 -3.40234,-1.11719 -1.32813,-1.08593 -2.1211,-2.74609 -2.1211,-6.6875 v -3.80859 c 0,-4.13281 0,-4.89453 0.0547,-5.76563 0.0586,-0.95312 0.27344,-1.41406 1.00781,-1.55468 0.32813,-0.0508 0.49219,-0.0781 0.78907,-0.0781 0.26953,0 0.43359,-0.0547 0.43359,-0.24219 0,-0.1914 -0.1875,-0.24609 -0.59766,-0.24609 -0.97656,0 -2.6914,0.082 -3.34375,0.082 -0.8164,0 -2.53124,-0.082 -3.97265,-0.082 -0.40625,0 -0.59766,0.0547 -0.59766,0.24609 0,0.1875 0.16407,0.24219 0.46094,0.24219 0.38281,0 0.84766,0.0274 1.0625,0.0781 0.89844,0.1914 1.11719,0.6289 1.16797,1.55468 0.0547,0.8711 0.0547,1.63282 0.0547,5.76563 v 3.96875 c 0,3.94531 1.03515,5.95703 2.42187,7.20703 1.98438,1.79688 4.59375,1.87891 6.03906,1.87891 1.76563,0 3.72657,-0.30078 5.65625,-1.95703 2.28516,-1.96094 2.58594,-5.16797 2.58594,-8.1875 v -2.91016 c 0,-4.13281 0,-4.89453 0.0508,-5.76563 0.0547,-0.95312 0.27344,-1.41406 1.00781,-1.55468 0.32422,-0.0508 0.48829,-0.0781 0.78907,-0.0781 0.32422,0 0.48828,-0.0547 0.48828,-0.24219 0,-0.1914 -0.19141,-0.24609 -0.57031,-0.24609 z m -51.835936,19.58203 c -5.222665,0 -8.347665,-4.48828 -8.347665,-10.14453 0,-6.77344 3.5586,-8.51172 6.69141,-8.51172 4.457031,0 7.968751,3.78125 7.968751,9.8711 0,7.85937 -4.410156,8.78515 -6.312496,8.78515 z m -0.871095,-19.96484 c -8.15625,0 -11.230474,6.01172 -11.230474,10.66406 0,4.8125 3.152344,10.66016 10.960934,10.66016 6.906251,0 11.257821,-4.92578 11.257821,-11.15235 0,-6.22656 -4.21485,-10.17187 -10.988281,-10.17187 z M 81.30517,820.95703 c -0.257812,0 -0.324218,0.12891 -0.421875,0.64844 -0.128906,0.58594 -0.550781,1.53125 -1.101562,2.14453 -1.304688,1.49609 -3.058594,1.82422 -5.953125,1.82422 -4.355469,0 -10.238281,-3.83985 -10.238281,-11.57422 0,-3.15234 0.617187,-6.23828 2.992187,-8.41797 1.429688,-1.30078 3.285156,-2.01562 6.109375,-2.01562 2.988281,0 5.527344,0.8789 6.597656,2.01562 0.816407,0.84375 1.238282,1.98438 1.269532,2.98828 0,0.45703 0.06641,0.71485 0.324218,0.71485 0.292969,0 0.355469,-0.25782 0.390625,-0.7461 0.06641,-0.64844 0.03125,-2.4375 0.09766,-3.51172 0.0625,-1.13672 0.164062,-1.52734 0.164062,-1.78515 0,-0.19532 -0.132812,-0.35547 -0.488281,-0.39453 -0.976563,-0.0937 -2.015625,-0.38672 -3.25,-0.55079 -1.496094,-0.19531 -2.699219,-0.32031 -4.714844,-0.32031 -4.84375,0 -7.929687,1.29688 -10.269531,3.44141 -3.121094,2.85937 -3.808594,6.69531 -3.808594,8.90625 0,3.15234 0.847656,6.79297 4.035156,9.58984 2.957032,2.56641 6.695313,3.54297 11.148438,3.54297 2.082031,0 4.550781,-0.22656 5.847656,-0.75 0.554688,-0.22656 0.6875,-0.38672 0.847656,-0.9375 0.328125,-1.10937 0.71875,-3.9375 0.71875,-4.32812 0,-0.25782 -0.06641,-0.48438 -0.296875,-0.48438"
       style="fill:#ffffff;fill-opacity:1;fill-rule:nonzero;stroke:none" />
    <g
       id="flowRoot817-5"
       style="font-style:normal;font-variant:normal;font-weight:normal;font-stretch:normal;font-size:40px;line-height:125%;font-family:'Libre Baskerville';-inkscape-font-specification:'Libre Baskerville';letter-spacing:0px;word-spacing:0px;fill:#ffffff;fill-opacity:1;stroke:none;stroke-width:1px;stroke-linecap:butt;stroke-linejoin:miter;stroke-opacity:1"
       transform="matrix(0.74999999,0,0,0.74999999,175.99898,420.93557)"
       aria-label="INSTITUTE FOR CANCER GENETICS">
      <path
         id="path1435"
         style="font-style:normal;font-variant:normal;font-weight:normal;font-stretch:normal;font-size:26.66666603px;line-height:0%;font-family:Raleway;-inkscape-font-specification:Raleway;letter-spacing:0px;fill:#ffffff;fill-opacity:1"
         d="m 111.46904,536.55595 v -18.93334 h 1.86666 v 18.93334 z" />
      <path
         id="path1437"
         style="font-style:normal;font-variant:normal;font-weight:normal;font-stretch:normal;font-size:26.66666603px;line-height:0%;font-family:Raleway;-inkscape-font-specification:Raleway;letter-spacing:0px;fill:#ffffff;fill-opacity:1"
         d="m 119.95029,521.08928 v 15.46667 h -1.86667 v -18.93334 h 1.44 l 12.53333,15.76 v -15.73333 h 1.86667 v 18.90667 h -1.62667 z" />
      <path
         id="path1439"
         style="font-style:normal;font-variant:normal;font-weight:normal;font-stretch:normal;font-size:26.66666603px;line-height:0%;font-family:Raleway;-inkscape-font-specification:Raleway;letter-spacing:0px;fill:#ffffff;fill-opacity:1"
         d="m 149.7232,521.16928 q -0.8,-0.90667 -2.13333,-1.46667 -1.33333,-0.56 -3.04,-0.56 -2.50667,0 -3.65333,0.96 -1.14667,0.93334 -1.14667,2.56 0,0.85334 0.29333,1.41334 0.32,0.53333 0.96,0.93333 0.64,0.4 1.62667,0.69333 1.01333,0.29334 2.37333,0.58667 1.52,0.32 2.72,0.72 1.22667,0.4 2.08,1.01333 0.85334,0.58667 1.30667,1.44 0.45333,0.85334 0.45333,2.13334 0,1.30666 -0.50666,2.26666 -0.50667,0.96 -1.41334,1.6 -0.90666,0.64 -2.16,0.96 -1.25333,0.29334 -2.74666,0.29334 -4.4,0 -7.6,-2.74667 l 0.93333,-1.52 q 0.50667,0.53333 1.2,1.01333 0.72,0.48 1.57333,0.85334 0.88,0.34666 1.86667,0.56 0.98667,0.18666 2.08,0.18666 2.26667,0 3.52,-0.8 1.28,-0.82666 1.28,-2.48 0,-0.88 -0.37333,-1.46666 -0.34667,-0.61334 -1.06667,-1.04 -0.72,-0.45334 -1.78667,-0.77334 -1.06666,-0.32 -2.48,-0.64 -1.49333,-0.34666 -2.61333,-0.72 -1.12,-0.37333 -1.89333,-0.93333 -0.77334,-0.56 -1.17334,-1.33333 -0.37333,-0.8 -0.37333,-1.94667 0,-1.30667 0.48,-2.32 0.50667,-1.04 1.41333,-1.70667 0.90667,-0.69333 2.13334,-1.04 1.22666,-0.37333 2.72,-0.37333 1.89333,0 3.36,0.58667 1.49333,0.56 2.69333,1.6 z" />
      <path
         id="path1441"
         style="font-style:normal;font-variant:normal;font-weight:normal;font-stretch:normal;font-size:26.66666603px;line-height:0%;font-family:Raleway;-inkscape-font-specification:Raleway;letter-spacing:0px;fill:#ffffff;fill-opacity:1"
         d="m 168.1382,519.27595 h -6.74667 v 17.28 h -1.86666 v -17.28 h -6.74667 v -1.65334 h 15.36 z" />
      <path
         id="path1443"
         style="font-style:normal;font-variant:normal;font-weight:normal;font-stretch:normal;font-size:26.66666603px;line-height:0%;font-family:Raleway;-inkscape-font-specification:Raleway;letter-spacing:0px;fill:#ffffff;fill-opacity:1"
         d="m 170.9482,536.55595 v -18.93334 h 1.86667 v 18.93334 z" />
      <path
         id="path1445"
         style="font-style:normal;font-variant:normal;font-weight:normal;font-stretch:normal;font-size:26.66666603px;line-height:0%;font-family:Raleway;-inkscape-font-specification:Raleway;letter-spacing:0px;fill:#ffffff;fill-opacity:1"
         d="m 191.00279,519.27595 h -6.74667 v 17.28 h -1.86667 v -17.28 h -6.74666 v -1.65334 h 15.36 z" />
      <path
         id="path1447"
         style="font-style:normal;font-variant:normal;font-weight:normal;font-stretch:normal;font-size:26.66666603px;line-height:0%;font-family:Raleway;-inkscape-font-specification:Raleway;letter-spacing:0px;fill:#ffffff;fill-opacity:1"
         d="m 201.49279,535.00928 q 1.78666,0 2.96,-0.66667 1.2,-0.69333 1.89333,-1.78666 0.72,-1.12 0.98667,-2.53334 0.29333,-1.41333 0.29333,-2.85333 v -9.54667 h 1.86667 v 9.54667 q 0,1.92 -0.42667,3.65333 -0.42667,1.70667 -1.38667,3.01334 -0.93333,1.30666 -2.45333,2.08 -1.52,0.77333 -3.70667,0.77333 -2.24,0 -3.78666,-0.8 -1.52,-0.82667 -2.45334,-2.16 -0.93333,-1.33333 -1.33333,-3.04 -0.4,-1.70667 -0.4,-3.52 v -9.54667 h 1.84 v 9.54667 q 0,1.49333 0.29333,2.90667 0.29334,1.41333 0.98667,2.50666 0.72,1.09334 1.89333,1.76 1.17334,0.66667 2.93334,0.66667 z" />
      <path
         id="path1449"
         style="font-style:normal;font-variant:normal;font-weight:normal;font-stretch:normal;font-size:26.66666603px;line-height:0%;font-family:Raleway;-inkscape-font-specification:Raleway;letter-spacing:0px;fill:#ffffff;fill-opacity:1"
         d="m 227.40904,519.27595 h -6.74667 v 17.28 h -1.86667 v -17.28 h -6.74666 v -1.65334 h 15.36 z" />
      <path
         id="path1451"
         style="font-style:normal;font-variant:normal;font-weight:normal;font-stretch:normal;font-size:26.66666603px;line-height:0%;font-family:Raleway;-inkscape-font-specification:Raleway;letter-spacing:0px;fill:#ffffff;fill-opacity:1"
         d="m 242.93904,534.90261 v 1.65334 h -12.72 v -18.93334 h 12.48 v 1.65334 H 232.0857 v 6.82666 h 9.25334 v 1.57334 h -9.25334 v 7.22666 z" />
      <path
         id="path1453"
         style="font-style:normal;font-variant:normal;font-weight:normal;font-stretch:normal;font-size:26.66666603px;line-height:0%;font-family:Raleway;-inkscape-font-specification:Raleway;letter-spacing:0px;fill:#ffffff;fill-opacity:1"
         d="m 253.29196,536.55595 v -18.93334 h 12.42666 v 1.65334 h -10.56 v 6.96 h 8.90667 v 1.54666 h -8.90667 v 8.77334 z" />
      <path
         id="path1455"
         style="font-style:normal;font-variant:normal;font-weight:normal;font-stretch:normal;font-size:26.66666603px;line-height:0%;font-family:Raleway;-inkscape-font-specification:Raleway;letter-spacing:0px;fill:#ffffff;fill-opacity:1"
         d="m 276.23112,536.68928 q -1.97333,0 -3.62666,-0.8 -1.62667,-0.82667 -2.8,-2.16 -1.17334,-1.36 -1.81334,-3.09333 -0.64,-1.73334 -0.64,-3.54667 0,-1.89333 0.66667,-3.62667 0.69333,-1.73333 1.89333,-3.06666 1.2,-1.33334 2.82667,-2.10667 1.62667,-0.8 3.52,-0.8 1.97333,0 3.6,0.85333 1.65333,0.82667 2.8,2.18667 1.17333,1.36 1.81333,3.09333 0.64,1.70667 0.64,3.49334 0,1.89333 -0.69333,3.62666 -0.66667,1.73334 -1.86667,3.06667 -1.17333,1.30667 -2.8,2.10667 -1.62666,0.77333 -3.52,0.77333 z m -7.01333,-9.6 q 0,1.54667 0.50667,2.98667 0.50666,1.41333 1.44,2.53333 0.93333,1.09333 2.21333,1.76 1.28,0.64 2.85333,0.64 1.6,0 2.90667,-0.69333 1.30667,-0.69334 2.21333,-1.81334 0.90667,-1.12 1.38667,-2.53333 0.50667,-1.41333 0.50667,-2.88 0,-1.54667 -0.53334,-2.96 -0.50666,-1.44 -1.44,-2.53333 -0.93333,-1.09334 -2.21333,-1.73334 -1.28,-0.66666 -2.82667,-0.66666 -1.6,0 -2.90666,0.69333 -1.30667,0.66667 -2.21334,1.78667 -0.90666,1.12 -1.41333,2.53333 -0.48,1.41333 -0.48,2.88 z" />
      <path
         id="path1457"
         style="font-style:normal;font-variant:normal;font-weight:normal;font-stretch:normal;font-size:26.66666603px;line-height:0%;font-family:Raleway;-inkscape-font-specification:Raleway;letter-spacing:0px;fill:#ffffff;fill-opacity:1"
         d="m 288.65654,536.55595 v -18.93334 h 8 q 1.22666,0 2.24,0.53334 1.04,0.50666 1.78666,1.36 0.74667,0.82666 1.14667,1.89333 0.42667,1.06667 0.42667,2.16 0,1.04 -0.32,2 -0.29334,0.93333 -0.85334,1.70667 -0.53333,0.74666 -1.30666,1.28 -0.77334,0.50666 -1.73334,0.69333 l 4.64,7.30667 h -2.10666 l -4.45334,-6.98667 h -5.6 v 6.98667 z m 1.86666,-8.64 h 6.18667 q 0.82667,0 1.49333,-0.34667 0.69334,-0.37333 1.17334,-0.98667 0.48,-0.61333 0.74666,-1.38666 0.26667,-0.77334 0.26667,-1.62667 0,-0.85333 -0.32,-1.62667 -0.29333,-0.8 -0.82667,-1.38666 -0.50666,-0.58667 -1.22666,-0.93334 -0.69334,-0.34666 -1.46667,-0.34666 h -6.02667 z" />
      <path
         id="path1459"
         style="font-style:normal;font-variant:normal;font-weight:bold;font-stretch:normal;font-family:Raleway;-inkscape-font-specification:'Raleway Bold';fill:#ffffff"
         d="m 311.32862,526.95595 q 0,-1.73334 0.61333,-3.41334 0.64,-1.70666 1.84,-3.04 1.2,-1.33333 2.93334,-2.16 1.73333,-0.82666 3.94666,-0.82666 2.61334,0 4.50667,1.14666 1.92,1.14667 2.85333,2.98667 l -2.82666,1.94667 q -0.37334,-0.8 -0.90667,-1.33334 -0.53333,-0.56 -1.14667,-0.88 -0.61333,-0.32 -1.28,-0.45333 -0.66666,-0.16 -1.30666,-0.16 -1.38667,0 -2.42667,0.56 -1.01333,0.56 -1.70667,1.46667 -0.66666,0.88 -1.01333,2.02666 -0.34667,1.12 -0.34667,2.24 0,1.25334 0.4,2.42667 0.4,1.14667 1.12,2.02667 0.74667,0.88 1.76,1.41333 1.04,0.53333 2.26667,0.53333 0.64,0 1.33333,-0.16 0.69334,-0.16 1.30667,-0.50666 0.64,-0.34667 1.17333,-0.88 0.53334,-0.56 0.85334,-1.33334 l 3.01333,1.73334 q -0.45333,1.06666 -1.30667,1.89333 -0.82666,0.8 -1.89333,1.36 -1.04,0.56 -2.24,0.85333 -1.2,0.29334 -2.34667,0.29334 -2.02666,0 -3.70666,-0.85334 -1.68,-0.85333 -2.90667,-2.21333 -1.2,-1.38667 -1.89333,-3.12 -0.66667,-1.76 -0.66667,-3.57333 z" />
      <path
         id="path1461"
         style="font-style:normal;font-variant:normal;font-weight:bold;font-stretch:normal;font-family:Raleway;-inkscape-font-specification:'Raleway Bold';fill:#ffffff"
         d="m 335.88278,517.62261 h 3.25333 l 7.2,18.93334 h -3.78666 l -1.76,-4.72 h -6.61334 l -1.73333,4.72 h -3.78667 z m 4.24,11.62667 -2.61333,-7.44 -2.72,7.44 z" />
      <path
         id="path1463"
         style="font-style:normal;font-variant:normal;font-weight:bold;font-stretch:normal;font-family:Raleway;-inkscape-font-specification:'Raleway Bold';fill:#ffffff"
         d="m 352.09279,524.42261 v 12.13334 h -3.68 v -18.93334 h 2.85333 l 9.86667,12.42667 v -12.4 h 3.68 v 18.90667 h -2.98667 z" />
      <path
         id="path1465"
         style="font-style:normal;font-variant:normal;font-weight:bold;font-stretch:normal;font-family:Raleway;-inkscape-font-specification:'Raleway Bold';fill:#ffffff"
         d="m 367.63068,526.95595 q 0,-1.73334 0.61334,-3.41334 0.64,-1.70666 1.84,-3.04 1.2,-1.33333 2.93333,-2.16 1.73333,-0.82666 3.94667,-0.82666 2.61333,0 4.50666,1.14666 1.92,1.14667 2.85334,2.98667 l -2.82667,1.94667 q -0.37333,-0.8 -0.90667,-1.33334 -0.53333,-0.56 -1.14666,-0.88 -0.61334,-0.32 -1.28,-0.45333 -0.66667,-0.16 -1.30667,-0.16 -1.38667,0 -2.42667,0.56 -1.01333,0.56 -1.70666,1.46667 -0.66667,0.88 -1.01334,2.02666 -0.34666,1.12 -0.34666,2.24 0,1.25334 0.4,2.42667 0.4,1.14667 1.12,2.02667 0.74666,0.88 1.76,1.41333 1.04,0.53333 2.26666,0.53333 0.64,0 1.33334,-0.16 0.69333,-0.16 1.30666,-0.50666 0.64,-0.34667 1.17334,-0.88 0.53333,-0.56 0.85333,-1.33334 l 3.01333,1.73334 q -0.45333,1.06666 -1.30666,1.89333 -0.82667,0.8 -1.89334,1.36 -1.04,0.56 -2.24,0.85333 -1.2,0.29334 -2.34666,0.29334 -2.02667,0 -3.70667,-0.85334 -1.68,-0.85333 -2.90667,-2.21333 -1.2,-1.38667 -1.89333,-3.12 -0.66667,-1.76 -0.66667,-3.57333 z" />
      <path
         id="path1467"
         style="font-style:normal;font-variant:normal;font-weight:bold;font-stretch:normal;font-family:Raleway;-inkscape-font-specification:'Raleway Bold';fill:#ffffff"
         d="m 400.20527,533.32928 v 3.22667 H 387.0586 v -18.93334 h 12.90667 v 3.22667 h -9.22667 v 4.56 h 7.97333 v 2.98667 h -7.97333 v 4.93333 z" />
      <path
         id="path1469"
         style="font-style:normal;font-variant:normal;font-weight:bold;font-stretch:normal;font-family:Raleway;-inkscape-font-specification:'Raleway Bold';fill:#ffffff"
         d="m 403.10029,536.55595 v -18.93334 h 8.37333 q 1.30667,0 2.4,0.56 1.12,0.53334 1.92,1.44 0.8,0.88 1.25333,2.02667 0.45334,1.12 0.45334,2.26667 0,1.84 -0.93334,3.36 -0.90666,1.49333 -2.48,2.16 l 4.32,7.12 h -4.13333 l -3.86667,-6.34667 h -3.62666 v 6.34667 z m 3.68,-9.57334 h 4.61333 q 0.50667,0 0.93333,-0.24 0.45334,-0.24 0.77334,-0.64 0.32,-0.42666 0.50666,-0.98666 0.18667,-0.56 0.18667,-1.2 0,-0.66667 -0.21333,-1.22667 -0.21334,-0.56 -0.58667,-0.96 -0.34667,-0.42667 -0.82667,-0.64 -0.45333,-0.24 -0.93333,-0.24 h -4.45333 z" />
      <path
         id="path1471"
         style="font-style:normal;font-variant:normal;font-weight:bold;font-stretch:normal;font-family:Raleway;-inkscape-font-specification:'Raleway Bold';fill:#ffffff"
         d="m 440.36152,534.42261 q -2.26667,2.26667 -5.28,2.26667 -1.86667,0 -3.52,-0.74667 -1.62667,-0.74666 -2.85334,-2.05333 -1.2,-1.30667 -1.92,-3.06667 -0.69333,-1.78666 -0.69333,-3.84 0,-1.94666 0.69333,-3.65333 0.72,-1.73333 1.94667,-3.01333 1.25333,-1.30667 2.93333,-2.05334 1.68,-0.77333 3.65334,-0.77333 2.66666,0 4.56,1.12 1.92,1.12 2.88,3.01333 l -2.74667,2.02667 q -0.72,-1.41333 -2.02667,-2.16 -1.28,-0.74667 -2.8,-0.74667 -1.2,0 -2.21333,0.50667 -0.98667,0.50667 -1.70667,1.38667 -0.69333,0.88 -1.09333,2.02666 -0.37333,1.14667 -0.37333,2.42667 0,1.33333 0.42666,2.50667 0.42667,1.14666 1.17334,2 0.74666,0.85333 1.76,1.36 1.04,0.48 2.24,0.48 2.74666,0 4.96,-2.58667 v -1.33333 h -3.81334 v -2.69334 h 6.85334 v 9.73334 h -3.04 z" />
      <path
         id="path1473"
         style="font-style:normal;font-variant:normal;font-weight:bold;font-stretch:normal;font-family:Raleway;-inkscape-font-specification:'Raleway Bold';fill:#ffffff"
         d="m 459.68445,533.32928 v 3.22667 h -13.14666 v -18.93334 h 12.90666 v 3.22667 h -9.22666 v 4.56 h 7.97333 v 2.98667 h -7.97333 v 4.93333 z" />
      <path
         id="path1475"
         style="font-style:normal;font-variant:normal;font-weight:bold;font-stretch:normal;font-family:Raleway;-inkscape-font-specification:'Raleway Bold';fill:#ffffff"
         d="m 466.25944,524.42261 v 12.13334 h -3.68 v -18.93334 h 2.85334 l 9.86666,12.42667 v -12.4 h 3.68 v 18.90667 h -2.98666 z" />
      <path
         id="path1477"
         style="font-style:normal;font-variant:normal;font-weight:bold;font-stretch:normal;font-family:Raleway;-inkscape-font-specification:'Raleway Bold';fill:#ffffff"
         d="m 496.0907,533.32928 v 3.22667 h -13.14666 v -18.93334 h 12.90666 v 3.22667 h -9.22666 v 4.56 h 7.97333 v 2.98667 h -7.97333 v 4.93333 z" />
      <path
         id="path1479"
         style="font-style:normal;font-variant:normal;font-weight:bold;font-stretch:normal;font-family:Raleway;-inkscape-font-specification:'Raleway Bold';fill:#ffffff"
         d="m 513.14569,520.84928 h -6.05333 v 15.70667 h -3.65333 v -15.70667 h -6.05334 v -3.22667 h 15.76 z" />
      <path
         id="path1481"
         style="font-style:normal;font-variant:normal;font-weight:bold;font-stretch:normal;font-family:Raleway;-inkscape-font-specification:'Raleway Bold';fill:#ffffff"
         d="m 515.4961,536.55595 v -18.93334 h 3.68 v 18.93334 z" />
      <path
         id="path1483"
         style="font-style:normal;font-variant:normal;font-weight:bold;font-stretch:normal;font-family:Raleway;-inkscape-font-specification:'Raleway Bold';fill:#ffffff"
         d="m 521.95362,526.95595 q 0,-1.73334 0.61333,-3.41334 0.64,-1.70666 1.84,-3.04 1.2,-1.33333 2.93334,-2.16 1.73333,-0.82666 3.94666,-0.82666 2.61334,0 4.50667,1.14666 1.92,1.14667 2.85333,2.98667 l -2.82666,1.94667 q -0.37334,-0.8 -0.90667,-1.33334 -0.53333,-0.56 -1.14667,-0.88 -0.61333,-0.32 -1.28,-0.45333 -0.66666,-0.16 -1.30666,-0.16 -1.38667,0 -2.42667,0.56 -1.01333,0.56 -1.70667,1.46667 -0.66666,0.88 -1.01333,2.02666 -0.34667,1.12 -0.34667,2.24 0,1.25334 0.4,2.42667 0.4,1.14667 1.12,2.02667 0.74667,0.88 1.76,1.41333 1.04,0.53333 2.26667,0.53333 0.64,0 1.33333,-0.16 0.69334,-0.16 1.30667,-0.50666 0.64,-0.34667 1.17333,-0.88 0.53334,-0.56 0.85334,-1.33334 l 3.01333,1.73334 q -0.45333,1.06666 -1.30667,1.89333 -0.82666,0.8 -1.89333,1.36 -1.04,0.56 -2.24,0.85333 -1.2,0.29334 -2.34667,0.29334 -2.02666,0 -3.70666,-0.85334 -1.68,-0.85333 -2.90667,-2.21333 -1.2,-1.38667 -1.89333,-3.12 -0.66667,-1.76 -0.66667,-3.57333 z" />
      <path
         id="path1485"
         style="font-style:normal;font-variant:normal;font-weight:bold;font-stretch:normal;font-family:Raleway;-inkscape-font-specification:'Raleway Bold';fill:#ffffff"
         d="m 552.66154,522.58261 q -0.18667,-0.18666 -0.69334,-0.50666 -0.48,-0.32 -1.2,-0.61334 -0.69333,-0.32 -1.52,-0.53333 -0.82666,-0.21333 -1.68,-0.21333 -1.52,0 -2.26666,0.56 -0.74667,0.56 -0.74667,1.57333 0,0.58667 0.26667,0.98667 0.29333,0.37333 0.82666,0.66666 0.53334,0.29334 1.33334,0.53334 0.82666,0.24 1.89333,0.50666 1.38667,0.37334 2.50667,0.8 1.14666,0.42667 1.92,1.06667 0.8,0.64 1.22666,1.54667 0.42667,0.88 0.42667,2.18666 0,1.52 -0.58667,2.61334 -0.56,1.06666 -1.54666,1.73333 -0.96,0.66667 -2.24,0.98667 -1.25334,0.29333 -2.64,0.29333 -2.13334,0 -4.21334,-0.64 -2.08,-0.64 -3.73333,-1.81333 l 1.62667,-3.17334 q 0.24,0.24 0.85333,0.64 0.64,0.37334 1.49333,0.77334 0.85334,0.37333 1.89334,0.64 1.04,0.26666 2.13333,0.26666 3.04,0 3.04,-1.94666 0,-0.61334 -0.34667,-1.04 -0.34666,-0.42667 -0.98666,-0.74667 -0.64,-0.32 -1.54667,-0.58667 -0.90667,-0.26666 -2.02667,-0.58666 -1.36,-0.37334 -2.37333,-0.8 -0.98667,-0.45334 -1.65333,-1.04 -0.66667,-0.61334 -1.01334,-1.38667 -0.32,-0.8 -0.32,-1.89333 0,-1.44 0.53334,-2.56 0.53333,-1.12 1.46666,-1.86667 0.96,-0.74667 2.21334,-1.12 1.25333,-0.4 2.69333,-0.4 2,0 3.68,0.64 1.68,0.61333 2.93333,1.46667 z" />
    </g>
  </g>
</svg>
