<?xml version="1.0" encoding="UTF-8" standalone="no"?>
<svg
   xmlns:dc="http://purl.org/dc/elements/1.1/"
   xmlns:cc="http://creativecommons.org/ns#"
   xmlns:rdf="http://www.w3.org/1999/02/22-rdf-syntax-ns#"
   xmlns:svg="http://www.w3.org/2000/svg"
   xmlns="http://www.w3.org/2000/svg"
   id="svg93"
   version="1.2"
   viewBox="0 0 670.93661 64.927102"
   height="22.904837mm"
   width="236.69151mm">
  <metadata
     id="metadata97">
    <rdf:RDF>
      <cc:Work
         rdf:about="">
        <dc:format>image/svg+xml</dc:format>
        <dc:type
           rdf:resource="http://purl.org/dc/dcmitype/StillImage" />
        <dc:title></dc:title>
      </cc:Work>
    </rdf:RDF>
  </metadata>
  <defs
     id="defs8">
    <clipPath
       id="clip1">
      <path
         id="path2"
         d="m 246,782.74219 h 2 V 842 h -2 z m 0,0" />
    </clipPath>
    <clipPath
       id="clip2">
      <path
         id="path5"
         d="m 465,817 h 10.83984 v 10 H 465 Z m 0,0" />
    </clipPath>
  </defs>
  <g
     clip-path="url(#clip1)"
     id="g12"
     style="clip-rule:nonzero"
     transform="translate(-1.6079797,-779.90754)">
    <path
       style="fill:#1c4c8f;fill-opacity:1;fill-rule:nonzero;stroke:none"
       d="M 246.66406,782.74219 246.66797,842 h 1.19531 v -59.25781 h -1.19922"
       id="path10" />
  </g>
  <path
     style="fill:#1c4c8f;fill-opacity:1;fill-rule:nonzero;stroke:none"
     d="m 40.787034,29.118476 c -2.023437,3.48829 -4.003906,6.85547 -6.484375,6.85547 -0.707031,0 -1.96875,-0.67187 -1.480469,-2.52734 l 2.335938,-2.35938 c 0.160156,-0.17968 0.28125,-0.38671 0.167969,-0.65234 l -1.476563,-3.125 c -0.08594,-0.18359 -0.25,-0.17578 -0.425781,0 l -3.125,3.125 c -0.167969,0.17188 -0.242188,0.40625 -0.132813,0.66016 l 0.988282,2.30859 c -0.382813,1.52734 -1.375,2.64063 -2.582032,2.55469 -2.238281,-0.14844 -4.054687,-4.40235 -1.359375,-10.41016 0.453125,-1.01172 0.625,-1.85937 0.578125,-2.59375 5.109375,-2.32422 11.683594,-4.82422 14.183594,-1.66406 1.503906,1.89453 0.800781,4.39844 -1.1875,7.82812 z m -21.695312,6.83985 c -1.203125,0.0859 -2.195313,-1.02735 -2.578125,-2.55469 l 0.984375,-2.30859 c 0.113281,-0.25391 0.03906,-0.48828 -0.128907,-0.66016 l -3.128906,-3.125 c -0.175781,-0.17578 -0.335937,-0.18359 -0.421875,0 l -1.480469,3.125 c -0.113281,0.26563 0.01172,0.47266 0.167969,0.65234 l 2.335938,2.35938 c 0.484375,1.85547 -0.769532,2.52734 -1.480469,2.52734 -2.476563,0 -4.4570307,-3.36718 -6.4843745,-6.85547 -1.9882807,-3.42968 -2.6874997,-5.93359 -1.1875,-7.82812 2.503906,-3.16016 9.0781245,-0.66016 14.1835935,1.66406 -0.04687,0.73438 0.125,1.58203 0.578125,2.59375 2.699218,6.00781 0.878906,10.26172 -1.359375,10.41016 z m 8.355468,-15.39844 c -0.371093,0.12109 -0.757812,0.0117 -1.09375,-0.25781 -0.289062,-0.24219 -0.59375,-0.44531 -0.894531,-0.625 0.933594,-0.55469 1.5625,-1.57031 1.5625,-2.73438 0,-1.59375 -1.167969,-2.91015 -2.695312,-3.14843 l 1.171875,-1.51172 c 0.117187,-0.14844 0.117187,-0.39453 0,-0.54297 L 24.044847,9.8645759 c -0.05859,-0.0781 -0.132813,-0.10938 -0.214844,-0.10938 -0.07422,0 -0.152344,0.0312 -0.210938,0.10938 l -1.449218,1.8750001 c -0.117188,0.14844 -0.117188,0.39453 0,0.54297 l 1.167968,1.51172 c -1.527343,0.23828 -2.691406,1.55468 -2.691406,3.14843 0,1.16407 0.625,2.17969 1.5625,2.73438 -0.300781,0.17969 -0.605469,0.38281 -0.898437,0.625 -0.335938,0.26953 -0.71875,0.3789 -1.09375,0.25781 -6.628907,-2.11719 -12.4804685,-4.16016 -15.8046872,-0.90234 -3.980469,3.91015 0.652344,10.22656 2.1132807,12.82422 1.019532,1.82421 1.746094,3.94921 1.746094,5.63671 H 39.392503 c 0,-1.6875 0.726562,-3.8125 1.746094,-5.63671 1.460937,-2.59766 6.097656,-8.91407 2.113281,-12.82422 -3.324219,-3.25782 -9.175781,-1.21485 -15.804688,0.90234 z M 8.2753155,42.891916 H 39.392503 v -2.5625 H 8.2753155 Z M 224.16985,34.442696 h -5.00391 c -0.10937,0 -0.13672,-0.082 -0.10937,-0.1914 l 2.5039,-6.69141 c 0.0273,-0.10547 0.0781,-0.24219 0.16016,-0.24219 0.082,0 0.10937,0.13672 0.13672,0.24219 l 2.44922,6.71875 c 0.0234,0.082 0,0.16406 -0.13672,0.16406 z m 9.1914,7.96875 c -0.32422,0 -0.73437,-0.0273 -1.14062,-0.10937 -0.57031,-0.13281 -1.35938,-0.51563 -2.39453,-2.96485 -1.74219,-4.13281 -6.09375,-15.22656 -6.7461,-16.72265 -0.26953,-0.625 -0.43359,-0.8711 -0.67578,-0.8711 -0.27344,0 -0.4375,0.29688 -0.76562,1.08594 l -6.82422,17.08203 c -0.54297,1.35547 -1.0625,2.28125 -2.3125,2.44532 -0.21485,0.0273 -0.59766,0.0547 -0.84375,0.0547 -0.21875,0 -0.32813,0.0547 -0.32813,0.21875 0,0.21485 0.16797,0.27344 0.51953,0.27344 1.41407,0 2.91016,-0.082 3.20704,-0.082 0.84765,0 2.01562,0.082 2.88671,0.082 0.29688,0 0.46094,-0.0586 0.46094,-0.27344 0,-0.16406 -0.082,-0.21875 -0.41015,-0.21875 h -0.40625 c -0.84375,0 -1.08985,-0.35156 -1.08985,-0.84375 0,-0.32422 0.13672,-0.97656 0.41016,-1.65625 l 1.46875,-3.89062 c 0.0547,-0.16406 0.10937,-0.21485 0.24219,-0.21485 h 6.0664 c 0.13672,0 0.21875,0.0508 0.27344,0.1875 l 2.17578,5.76563 c 0.13672,0.32422 -0.0547,0.57031 -0.24609,0.625 -0.26953,0.0273 -0.37891,0.082 -0.37891,0.24609 0,0.19141 0.32422,0.19141 0.8125,0.21485 2.17578,0.0586 4.16406,0.0586 5.14063,0.0586 1.00781,0 1.2539,-0.0586 1.2539,-0.27344 0,-0.1914 -0.13672,-0.21875 -0.35547,-0.21875 z m -55.63672,0 c -0.35156,0 -0.89843,-0.0273 -1.6875,-0.27343 -0.8125,-0.24219 -1.08593,-1.03125 -1.33203,-2.7461 l -2.47265,-16.80469 c -0.082,-0.57421 -0.2461,-0.84375 -0.49219,-0.84375 -0.24219,0 -0.40625,0.21485 -0.59766,0.65235 l -7.39843,15.52734 -7.42188,-15.33594 c -0.35156,-0.70703 -0.51562,-0.84375 -0.73437,-0.84375 -0.21875,0 -0.38282,0.2461 -0.46094,0.70704 l -2.69141,17.73437 c -0.13672,0.92188 -0.35547,1.98438 -1.11719,2.14453 -0.40625,0.082 -0.59765,0.082 -0.8164,0.082 -0.27344,0 -0.4336,0.0547 -0.4336,0.19141 0,0.24219 0.21485,0.30078 0.48829,0.30078 0.87109,0 2.17578,-0.0859 2.6914,-0.0859 0.49219,0 1.71485,0.0859 2.85547,0.0859 0.41016,0 0.65234,-0.0586 0.65234,-0.30078 0,-0.13672 -0.1875,-0.19141 -0.40625,-0.19141 -0.27343,0 -0.65234,-0.0273 -1.14453,-0.13672 -0.46093,-0.10546 -0.8125,-0.35156 -0.8125,-0.87109 0,-0.43359 0.0273,-0.78516 0.082,-1.27344 l 1.41407,-10.82422 h 0.10547 c 0.95312,2.03516 2.58593,5.46485 2.83203,6.03516 0.32422,0.76172 2.47656,4.92188 3.125,6.17188 0.4375,0.8164 0.70703,1.36328 0.95312,1.36328 0.2461,0 0.37891,-0.2461 1.00391,-1.52735 l 5.93359,-12.34375 h 0.10547 l 1.63281,11.96485 c 0.10938,0.76172 0.0273,1.11328 -0.13672,1.16797 -0.1875,0.082 -0.30078,0.16406 -0.30078,0.30078 0,0.16406 0.16407,0.24609 0.79297,0.30078 1.08594,0.082 4.83985,0.16406 5.51953,0.16406 0.38282,0 0.70703,-0.082 0.70703,-0.30078 0,-0.16406 -0.1914,-0.19141 -0.4375,-0.19141 z m 11.98829,-0.65234 c -0.625,0 -1.25,-0.0273 -1.98438,-0.32422 -0.86719,-0.35547 -0.94922,-0.81641 -0.94922,-2.61328 v -6.44141 c 0,-0.13672 0.0508,-0.1914 0.16016,-0.1914 0.41015,0 0.68359,0 1.17187,0.0234 1.0586,0.0547 1.6875,0.24219 2.25782,0.65625 2.0664,1.4375 2.63671,3.72266 2.63671,5.40625 0,2.83204 -2.0664,3.48438 -3.29296,3.48438 z m -2.9336,-17.78906 c 0,-0.29688 0.0508,-0.40235 0.24219,-0.46094 0.27344,-0.0547 0.51562,-0.0547 0.89844,-0.0547 2.33984,0 3.40234,2.39453 3.40234,4.21875 0,1.33203 -0.41016,2.3125 -1.11719,2.88281 -0.46093,0.40625 -1.0625,0.51563 -1.96093,0.51563 -0.6211,0 -1.03125,-0.0273 -1.27735,-0.082 -0.10547,-0.0273 -0.1875,-0.082 -0.1875,-0.30078 z m 4.6211,7.21093 c 1.49609,-1.19531 2.77734,-2.53125 2.77734,-4.75781 0,-1.44531 -0.87109,-4.08203 -5.79688,-4.08203 -0.92578,0 -1.98437,0.0781 -3.3164,0.0781 -0.54297,0 -2.25781,-0.0781 -3.69922,-0.0781 -0.40625,0 -0.59766,0.0547 -0.59766,0.24609 0,0.1875 0.16407,0.24219 0.46094,0.24219 0.37891,0 0.84375,0.0274 1.05859,0.0781 0.89844,0.19531 1.11719,0.6289 1.17188,1.55468 0.0547,0.8711 0.0547,1.63282 0.0547,5.76563 v 4.78906 c 0,2.5 0,4.65235 -0.13672,5.78906 -0.10938,0.78907 -0.24219,1.38672 -0.78516,1.4961 -0.24609,0.0547 -0.57422,0.10937 -0.98437,0.10937 -0.32422,0 -0.4336,0.082 -0.4336,0.21875 0,0.19141 0.19141,0.27344 0.54297,0.27344 1.08985,0 2.80469,-0.082 3.42969,-0.082 0.81641,0 3.28906,0.16016 3.94141,0.16016 5.00781,0 7.26171,-3.01563 7.26171,-5.92969 0,-3.17969 -2.71875,-5.10938 -4.94921,-5.8711 z m -67.30078,7.47657 c -0.21875,0 -0.26954,0.16406 -0.30079,0.41015 -0.0547,0.51563 -0.3789,1.27735 -0.70312,1.62891 -0.68359,0.73828 -1.74609,0.76172 -3.1875,0.76172 -2.12109,0 -2.82422,-0.19141 -3.28906,-0.59766 -0.57032,-0.48828 -0.57032,-2.36328 -0.57032,-5.84765 v -4.78516 c 0,-4.13281 0,-4.89453 0.0547,-5.76563 0.0547,-0.95312 0.26953,-1.41406 1.00391,-1.55078 0.32812,-0.0508 0.76172,-0.0781 1.0625,-0.0781 0.32812,0 0.48828,-0.0586 0.48828,-0.2461 0,-0.1914 -0.1875,-0.24609 -0.57031,-0.24609 -1.0625,0 -3.04688,0.0859 -3.69922,0.0859 -0.73438,0 -2.44922,-0.0859 -3.72656,-0.0859 -0.40625,0 -0.59766,0.0547 -0.59766,0.24609 0,0.1875 0.16406,0.2461 0.46094,0.2461 0.35547,0 0.67968,0.0273 0.89843,0.0781 0.89844,0.1875 1.11719,0.625 1.17188,1.55078 0.0547,0.8711 0.0547,1.63282 0.0547,5.76563 v 4.78516 c 0,2.5039 0,4.65625 -0.13672,5.79296 -0.10938,0.78907 -0.2461,1.38672 -0.78906,1.4961 -0.2461,0.0547 -0.57422,0.10937 -0.98047,0.10937 -0.32422,0 -0.4336,0.082 -0.4336,0.21875 0,0.1875 0.19141,0.27344 0.54297,0.27344 1.08594,0 2.80078,-0.0859 3.42969,-0.0859 2.20312,0 3.99609,0.16407 7.91016,0.16407 1.41406,0 1.55078,-0.13672 1.71484,-0.73438 0.21875,-0.78906 0.40625,-2.82812 0.40625,-3.125 0,-0.32812 -0.0234,-0.46484 -0.21484,-0.46484 z m 84.55859,3.7539 c -0.41016,0 -1.00391,-0.0547 -1.38672,-0.10937 -0.81641,-0.10938 -1.00391,-0.59766 -1.08984,-1.33203 -0.10938,-1.16797 -0.10938,-3.32032 -0.10938,-5.95703 v -4.78516 c 0,-4.13281 0,-4.89453 0.0547,-5.76563 0.0547,-0.95312 0.27344,-1.41406 1.00781,-1.55468 0.32813,-0.0508 0.54297,-0.0781 0.81641,-0.0781 0.27343,0 0.43359,-0.0547 0.43359,-0.27344 0,-0.16015 -0.21484,-0.21484 -0.57031,-0.21484 -1.03516,0 -2.64063,0.082 -3.31641,0.082 -0.79297,0 -2.5039,-0.082 -3.53906,-0.082 -0.43359,0 -0.65234,0.0547 -0.65234,0.21484 0,0.21875 0.16406,0.27344 0.4375,0.27344 0.32421,0 0.67968,0.0274 0.97656,0.10938 0.60156,0.13672 0.87109,0.59765 0.92578,1.52343 0.0547,0.8711 0.0547,1.63282 0.0547,5.76563 v 4.78516 c 0,2.63671 0,4.78906 -0.13672,5.92968 -0.082,0.78907 -0.24219,1.25 -0.78906,1.35938 -0.24219,0.0547 -0.57032,0.10937 -0.97657,0.10937 -0.32812,0 -0.43359,0.082 -0.43359,0.21875 0,0.1875 0.1875,0.27344 0.54297,0.27344 1.08594,0 2.79687,-0.0859 3.42578,-0.0859 0.73437,0 2.44531,0.0859 4.24219,0.0859 0.29687,0 0.51953,-0.0859 0.51953,-0.27344 0,-0.13672 -0.14063,-0.21875 -0.4375,-0.21875 z m -60.63281,-20.07031 c -1.0625,0 -2.77735,0.082 -3.10157,0.082 -0.0273,0 -1.73828,-0.082 -3.125,-0.082 -0.38281,0 -0.57031,0.0547 -0.57031,0.24609 0,0.1875 0.16016,0.24219 0.45703,0.24219 0.30078,0 0.76172,0.0274 0.98438,0.0781 0.89453,0.1914 1.11328,0.6289 1.16797,1.55468 0.0508,0.8711 0.0508,1.63282 0.0508,5.76563 v 3.39844 c 0,2.80468 -0.0781,5.2539 -1.57813,6.74609 -1.08203,1.08594 -2.55469,1.46875 -3.75,1.46875 -0.92578,0 -2.17578,-0.10937 -3.40234,-1.11719 -1.32813,-1.08593 -2.1211,-2.74609 -2.1211,-6.6875 v -3.80859 c 0,-4.13281 0,-4.89453 0.0547,-5.76563 0.0586,-0.95312 0.27344,-1.41406 1.00781,-1.55468 0.32813,-0.0508 0.49219,-0.0781 0.78907,-0.0781 0.26953,0 0.43359,-0.0547 0.43359,-0.24219 0,-0.1914 -0.1875,-0.24609 -0.59766,-0.24609 -0.97656,0 -2.6914,0.082 -3.34375,0.082 -0.8164,0 -2.53124,-0.082 -3.97265,-0.082 -0.40625,0 -0.59766,0.0547 -0.59766,0.24609 0,0.1875 0.16407,0.24219 0.46094,0.24219 0.38281,0 0.84766,0.0274 1.0625,0.0781 0.89844,0.1914 1.11719,0.6289 1.16797,1.55468 0.0547,0.8711 0.0547,1.63282 0.0547,5.76563 v 3.96875 c 0,3.94531 1.03515,5.95703 2.42187,7.20703 1.98438,1.79688 4.59375,1.87891 6.03906,1.87891 1.76563,0 3.72657,-0.30078 5.65625,-1.95703 2.28516,-1.96094 2.58594,-5.16797 2.58594,-8.1875 v -2.91016 c 0,-4.13281 0,-4.89453 0.0508,-5.76563 0.0547,-0.95312 0.27344,-1.41406 1.00781,-1.55468 0.32422,-0.0508 0.48829,-0.0781 0.78907,-0.0781 0.32422,0 0.48828,-0.0547 0.48828,-0.24219 0,-0.1914 -0.19141,-0.24609 -0.57031,-0.24609 z m -51.835936,19.58203 c -5.222665,0 -8.347665,-4.48828 -8.347665,-10.14453 0,-6.77344 3.5586,-8.51172 6.69141,-8.51172 4.457031,0 7.968751,3.78125 7.968751,9.8711 0,7.85937 -4.410156,8.78515 -6.312496,8.78515 z m -0.871095,-19.96484 c -8.15625,0 -11.230474,6.01172 -11.230474,10.66406 0,4.8125 3.152344,10.66016 10.960934,10.66016 6.906251,0 11.257821,-4.92578 11.257821,-11.15235 0,-6.22656 -4.21485,-10.17187 -10.988281,-10.17187 z M 79.69719,36.872386 c -0.257812,0 -0.324218,0.12891 -0.421875,0.64844 -0.128906,0.58594 -0.550781,1.53125 -1.101562,2.14453 -1.304688,1.49609 -3.058594,1.82422 -5.953125,1.82422 -4.355469,0 -10.238281,-3.83985 -10.238281,-11.57422 0,-3.15234 0.617187,-6.23828 2.992187,-8.41797 1.429688,-1.30078 3.285156,-2.01562 6.109375,-2.01562 2.988281,0 5.527344,0.8789 6.597656,2.01562 0.816407,0.84375 1.238282,1.98438 1.269532,2.98828 0,0.45703 0.06641,0.71485 0.324218,0.71485 0.292969,0 0.355469,-0.25782 0.390625,-0.7461 0.06641,-0.64844 0.03125,-2.4375 0.09766,-3.51172 0.0625,-1.13672 0.164062,-1.52734 0.164062,-1.78515 0,-0.19532 -0.132812,-0.35547 -0.488281,-0.39453 -0.976563,-0.0937 -2.015625,-0.38672 -3.25,-0.55079 -1.496094,-0.19531 -2.699219,-0.32031 -4.714844,-0.32031 -4.84375,0 -7.929687,1.29688 -10.269531,3.44141 -3.121094,2.85937 -3.808594,6.69531 -3.808594,8.90625 0,3.15234 0.847656,6.79297 4.035156,9.58984 2.957032,2.56641 6.695313,3.54297 11.148438,3.54297 2.082031,0 4.550781,-0.22656 5.847656,-0.75 0.554688,-0.22656 0.6875,-0.38672 0.847656,-0.9375 0.328125,-1.10937 0.71875,-3.9375 0.71875,-4.32812 0,-0.25782 -0.06641,-0.48438 -0.296875,-0.48438"
     id="path90" />
  <g
     id="flowRoot817-5-3"
     style="font-style:normal;font-variant:normal;font-weight:normal;font-stretch:normal;font-size:40px;line-height:125%;font-family:'Libre Baskerville';-inkscape-font-specification:'Libre Baskerville';letter-spacing:0px;word-spacing:0px;fill:#1c4c8f;fill-opacity:1;stroke:none;stroke-width:1px;stroke-linecap:butt;stroke-linejoin:miter;stroke-opacity:1"
     transform="matrix(0.75000006,0,0,0.75000006,175.0884,-361.25173)"
     aria-label="INSTITUTE FOR CANCER GENETICS">
    <path
       id="path1548"
       style="font-style:normal;font-variant:normal;font-weight:300;font-stretch:normal;font-size:32px;font-family:Inter;-inkscape-font-specification:'Inter Light'"
       d="m 114.31161,513.28322 v 23.27273 h -2.125 v -23.27273 z" />
    <path
       id="path1550"
       style="font-style:normal;font-variant:normal;font-weight:300;font-stretch:normal;font-size:32px;font-family:Inter;-inkscape-font-specification:'Inter Light'"
       d="m 138.62411,513.28322 v 23.27273 h -2.06818 l -13.75,-19.48864 h -0.18182 v 19.48864 h -2.125 v -23.27273 h 2.05682 l 13.79545,19.51136 h 0.18182 v -19.51136 z" />
    <path
       id="path1552"
       style="font-style:normal;font-variant:normal;font-weight:300;font-stretch:normal;font-size:32px;font-family:Inter;-inkscape-font-specification:'Inter Light'"
       d="m 157.44798,519.1014 q -0.19319,-1.94318 -1.71591,-3.09091 -1.52273,-1.14772 -3.82955,-1.14772 -1.625,0 -2.86364,0.55681 -1.22727,0.55682 -1.93181,1.54546 -0.69319,0.97727 -0.69319,2.22727 0,0.92046 0.39773,1.61364 0.39773,0.69318 1.06818,1.19318 0.68182,0.48864 1.5,0.84091 0.82955,0.35227 1.67046,0.59091 l 2.45454,0.70454 q 1.11364,0.30682 2.22728,0.78409 1.11363,0.47728 2.03409,1.20455 0.93182,0.71591 1.48863,1.76136 0.56819,1.03409 0.56819,2.48864 0,1.86364 -0.96591,3.35227 -0.96591,1.48864 -2.77273,2.36364 -1.80682,0.86363 -4.32955,0.86363 -2.375,0 -4.125,-0.78409 -1.75,-0.79545 -2.75,-2.19318 -1,-1.39773 -1.125,-3.23863 h 2.18182 q 0.11364,1.375 0.90909,2.32954 0.79546,0.95455 2.06818,1.45455 1.27273,0.48863 2.84091,0.48863 1.73864,0 3.09091,-0.57954 1.36364,-0.59091 2.13637,-1.63637 0.78409,-1.05681 0.78409,-2.45454 0,-1.18182 -0.61364,-1.97727 -0.61364,-0.80682 -1.71591,-1.35228 -1.09091,-0.54545 -2.53409,-0.96591 l -2.78409,-0.81818 q -2.73864,-0.81818 -4.25,-2.26136 -1.51136,-1.44318 -1.51136,-3.68182 0,-1.875 1,-3.29545 1.01136,-1.43182 2.72727,-2.22728 1.72727,-0.80682 3.875,-0.80682 2.17045,0 3.84091,0.79546 1.67045,0.79545 2.64773,2.19318 0.98863,1.38636 1.05681,3.15909 z" />
    <path
       id="path1554"
       style="font-style:normal;font-variant:normal;font-weight:300;font-stretch:normal;font-size:32px;font-family:Inter;-inkscape-font-specification:'Inter Light'"
       d="m 163.52752,515.19231 v -1.90909 h 16.875 v 1.90909 h -7.375 v 21.36364 h -2.125 v -21.36364 z" />
    <path
       id="path1556"
       style="font-style:normal;font-variant:normal;font-weight:300;font-stretch:normal;font-size:32px;font-family:Inter;-inkscape-font-specification:'Inter Light'"
       d="m 187.31161,513.28322 v 23.27273 h -2.125 v -23.27273 z" />
    <path
       id="path1558"
       style="font-style:normal;font-variant:normal;font-weight:300;font-stretch:normal;font-size:32px;font-family:Inter;-inkscape-font-specification:'Inter Light'"
       d="m 192.09002,515.19231 v -1.90909 h 16.875 v 1.90909 h -7.375 v 21.36364 h -2.125 v -21.36364 z" />
    <path
       id="path1560"
       style="font-style:normal;font-variant:normal;font-weight:300;font-stretch:normal;font-size:32px;font-family:Inter;-inkscape-font-specification:'Inter Light'"
       d="m 229.26048,513.28322 h 2.125 v 15.40909 q 0,2.375 -1.11364,4.25 -1.11364,1.86364 -3.10227,2.94318 -1.97728,1.06818 -4.60228,1.06818 -2.61363,0 -4.60227,-1.07954 -1.98864,-1.07955 -3.10227,-2.94318 -1.11364,-1.86364 -1.11364,-4.23864 v -15.40909 h 2.125 v 15.26136 q 0,1.85228 0.82955,3.30682 0.82954,1.44318 2.32954,2.27273 1.51137,0.82954 3.53409,0.82954 2.02273,0 3.53409,-0.82954 1.51137,-0.82955 2.32955,-2.27273 0.82955,-1.45454 0.82955,-3.30682 z" />
    <path
       id="path1562"
       style="font-style:normal;font-variant:normal;font-weight:300;font-stretch:normal;font-size:32px;font-family:Inter;-inkscape-font-specification:'Inter Light'"
       d="m 236.15252,515.19231 v -1.90909 h 16.875 v 1.90909 h -7.375 v 21.36364 h -2.125 v -21.36364 z" />
    <path
       id="path1564"
       style="font-style:normal;font-variant:normal;font-weight:300;font-stretch:normal;font-size:32px;font-family:Inter;-inkscape-font-specification:'Inter Light'"
       d="m 257.81161,536.55595 v -23.27273 h 13.5 v 1.90909 h -11.375 v 8.76136 h 10.65909 v 1.9091 h -10.65909 v 8.78409 h 11.60227 v 1.90909 z" />
    <path
       id="path1566"
       style="font-style:normal;font-variant:normal;font-weight:300;font-stretch:normal;font-size:32px;font-family:Inter;-inkscape-font-specification:'Inter Light'"
       d="m 285.81161,536.55595 v -23.27273 h 13.46591 v 1.90909 h -11.34091 v 8.76136 h 10.28409 v 1.9091 h -10.28409 v 10.69318 z" />
    <path
       id="path1568"
       style="font-style:normal;font-variant:normal;font-weight:300;font-stretch:normal;font-size:32px;font-family:Inter;-inkscape-font-specification:'Inter Light'"
       d="m 323.64116,524.91958 q 0,3.63637 -1.29546,6.32955 -1.29545,2.68182 -3.56818,4.15909 -2.26136,1.46591 -5.20454,1.46591 -2.94319,0 -5.21591,-1.46591 -2.26137,-1.47727 -3.55682,-4.15909 -1.28409,-2.69318 -1.28409,-6.32955 0,-3.63636 1.28409,-6.31818 1.29545,-2.69318 3.56818,-4.15909 2.27273,-1.47727 5.20455,-1.47727 2.94318,0 5.20454,1.47727 2.27273,1.46591 3.56818,4.15909 1.29546,2.68182 1.29546,6.31818 z m -2.06818,0 q 0,-3.125 -1.04546,-5.35227 -1.04545,-2.23864 -2.85227,-3.42045 -1.80682,-1.18182 -4.10227,-1.18182 -2.2841,0 -4.09091,1.18182 -1.80682,1.18181 -2.86364,3.40909 -1.04545,2.22727 -1.04545,5.36363 0,3.125 1.04545,5.35228 1.04545,2.22727 2.85227,3.42045 1.80682,1.18182 4.10228,1.18182 2.29545,0 4.10227,-1.18182 1.81818,-1.18182 2.86363,-3.40909 1.04546,-2.23864 1.0341,-5.36364 z" />
    <path
       id="path1570"
       style="font-style:normal;font-variant:normal;font-weight:300;font-stretch:normal;font-size:32px;font-family:Inter;-inkscape-font-specification:'Inter Light'"
       d="m 328.74911,536.55595 v -23.27273 h 7.51137 q 2.47727,0 4.13636,0.89773 1.67045,0.88636 2.51136,2.46591 0.85228,1.56818 0.85228,3.60227 0,2.03409 -0.85228,3.59091 -0.84091,1.55682 -2.5,2.43182 -1.65909,0.875 -4.11363,0.875 h -6.39773 v -1.94319 h 6.34091 q 1.81818,0 3.02273,-0.60227 1.2159,-0.60227 1.80681,-1.71591 0.60228,-1.11363 0.60228,-2.63636 0,-1.52273 -0.60228,-2.65909 -0.60227,-1.14773 -1.81818,-1.77273 -1.20454,-0.625 -3.04545,-0.625 h -5.32955 v 21.36364 z m 10.26137,-10.5 5.72727,10.5 h -2.45455 l -5.67045,-10.5 z" />
    <path
       id="path1572"
       style="font-style:normal;font-variant:normal;font-weight:600;font-stretch:normal;font-size:32px;line-height:0%;font-family:Inter;-inkscape-font-specification:'Inter Semi-Bold';letter-spacing:0px;fill:#1c4c8f;fill-opacity:1"
       d="m 377.06161,521.13549 h -4.25 q -0.18182,-1.04545 -0.67045,-1.85227 -0.48864,-0.81818 -1.21591,-1.38636 -0.72727,-0.56819 -1.65909,-0.85228 -0.92046,-0.29545 -1.98864,-0.29545 -1.89773,0 -3.36364,0.95454 -1.4659,0.94319 -2.29545,2.77273 -0.82955,1.81818 -0.82955,4.44318 0,2.67046 0.82955,4.5 0.84091,1.81819 2.29545,2.75 1.46591,0.92046 3.35228,0.92046 1.04545,0 1.95454,-0.27273 0.92046,-0.28409 1.64773,-0.82954 0.73864,-0.54546 1.23864,-1.34091 0.51136,-0.79546 0.70454,-1.81819 l 4.25,0.0227 q -0.23863,1.65909 -1.03409,3.11364 -0.78409,1.45454 -2.05682,2.56818 -1.27272,1.10227 -2.97727,1.72727 -1.70455,0.61364 -3.78409,0.61364 -3.06818,0 -5.47727,-1.42046 -2.40909,-1.42045 -3.79546,-4.10227 -1.38636,-2.68182 -1.38636,-6.43182 0,-3.76136 1.39773,-6.43181 1.39772,-2.68182 3.80681,-4.10228 2.40909,-1.42045 5.45455,-1.42045 1.94318,0 3.61364,0.54545 1.67045,0.54546 2.97727,1.60228 1.30682,1.04545 2.14773,2.56818 0.85227,1.51136 1.11363,3.45454 z" />
    <path
       id="path1574"
       style="font-style:normal;font-variant:normal;font-weight:600;font-stretch:normal;font-size:32px;line-height:0%;font-family:Inter;-inkscape-font-specification:'Inter Semi-Bold';letter-spacing:0px;fill:#1c4c8f;fill-opacity:1"
       d="m 383.94229,536.55595 h -4.5 l 8.19319,-23.27273 h 5.20454 l 8.20455,23.27273 h -4.5 l -6.21591,-18.5 h -0.18182 z m 0.14773,-9.125 h 12.27273 v 3.38636 h -12.27273 z" />
    <path
       id="path1576"
       style="font-style:normal;font-variant:normal;font-weight:600;font-stretch:normal;font-size:32px;line-height:0%;font-family:Inter;-inkscape-font-specification:'Inter Semi-Bold';letter-spacing:0px;fill:#1c4c8f;fill-opacity:1"
       d="m 423.26616,513.28322 v 23.27273 h -3.75 l -10.96591,-15.85228 h -0.19318 v 15.85228 h -4.21591 v -23.27273 h 3.77272 l 10.95455,15.86364 h 0.20455 v -15.86364 z" />
    <path
       id="path1578"
       style="font-style:normal;font-variant:normal;font-weight:600;font-stretch:normal;font-size:32px;line-height:0%;font-family:Inter;-inkscape-font-specification:'Inter Semi-Bold';letter-spacing:0px;fill:#1c4c8f;fill-opacity:1"
       d="m 447.74911,521.13549 h -4.25 q -0.18182,-1.04545 -0.67045,-1.85227 -0.48864,-0.81818 -1.21591,-1.38636 -0.72727,-0.56819 -1.65909,-0.85228 -0.92046,-0.29545 -1.98864,-0.29545 -1.89773,0 -3.36364,0.95454 -1.4659,0.94319 -2.29545,2.77273 -0.82955,1.81818 -0.82955,4.44318 0,2.67046 0.82955,4.5 0.84091,1.81819 2.29545,2.75 1.46591,0.92046 3.35228,0.92046 1.04545,0 1.95454,-0.27273 0.92046,-0.28409 1.64773,-0.82954 0.73864,-0.54546 1.23864,-1.34091 0.51136,-0.79546 0.70454,-1.81819 l 4.25,0.0227 q -0.23863,1.65909 -1.03409,3.11364 -0.78409,1.45454 -2.05682,2.56818 -1.27272,1.10227 -2.97727,1.72727 -1.70455,0.61364 -3.78409,0.61364 -3.06818,0 -5.47727,-1.42046 -2.40909,-1.42045 -3.79546,-4.10227 -1.38636,-2.68182 -1.38636,-6.43182 0,-3.76136 1.39773,-6.43181 1.39772,-2.68182 3.80681,-4.10228 2.40909,-1.42045 5.45455,-1.42045 1.94318,0 3.61364,0.54545 1.67045,0.54546 2.97727,1.60228 1.30682,1.04545 2.14773,2.56818 0.85227,1.51136 1.11363,3.45454 z" />
    <path
       id="path1580"
       style="font-style:normal;font-variant:normal;font-weight:600;font-stretch:normal;font-size:32px;line-height:0%;font-family:Inter;-inkscape-font-specification:'Inter Semi-Bold';letter-spacing:0px;fill:#1c4c8f;fill-opacity:1"
       d="m 451.64116,536.55595 v -23.27273 h 15.13636 v 3.53409 h -10.92045 v 6.31818 h 10.13636 v 3.53409 h -10.13636 v 6.35228 h 11.01136 v 3.53409 z" />
    <path
       id="path1582"
       style="font-style:normal;font-variant:normal;font-weight:600;font-stretch:normal;font-size:32px;line-height:0%;font-family:Inter;-inkscape-font-specification:'Inter Semi-Bold';letter-spacing:0px;fill:#1c4c8f;fill-opacity:1"
       d="m 471.07866,536.55595 v -23.27273 h 8.72727 q 2.68182,0 4.5,0.93182 1.82955,0.93182 2.76136,2.61363 0.94319,1.67046 0.94319,3.89773 0,2.23864 -0.95455,3.88637 -0.94318,1.63636 -2.78409,2.53409 -1.84091,0.88636 -4.52273,0.88636 h -6.21591 v -3.5 h 5.64773 q 1.56818,0 2.56818,-0.43182 1,-0.44318 1.47727,-1.28409 0.48864,-0.85227 0.48864,-2.09091 0,-1.23863 -0.48864,-2.11363 -0.48863,-0.88637 -1.48863,-1.34091 -1,-0.46591 -2.57955,-0.46591 h -3.86363 v 19.75 z m 12.02272,-10.54546 5.76137,10.54546 h -4.70455 l -5.65909,-10.54546 z" />
    <path
       id="path1584"
       style="font-style:normal;font-variant:normal;font-weight:600;font-stretch:normal;font-size:32px;line-height:0%;font-family:Inter;-inkscape-font-specification:'Inter Semi-Bold';letter-spacing:0px;fill:#1c4c8f;fill-opacity:1"
       d="m 515.41957,520.71504 q -0.28409,-0.92046 -0.78409,-1.64773 -0.48864,-0.73864 -1.18182,-1.26136 -0.68182,-0.52273 -1.56818,-0.78409 -0.88637,-0.27273 -1.93182,-0.27273 -1.875,0 -3.34091,0.94318 -1.46591,0.94318 -2.30682,2.77273 -0.82955,1.81818 -0.82955,4.43182 0,2.63636 0.82955,4.46591 0.82955,1.82954 2.30682,2.78409 1.47727,0.94318 3.43182,0.94318 1.77272,0 3.06818,-0.68182 1.30682,-0.68182 2.01136,-1.93182 0.70455,-1.26136 0.70455,-2.95454 l 0.95454,0.14772 h -6.31818 v -3.29545 h 9.44318 v 2.79545 q 0,2.98864 -1.27272,5.17046 -1.27273,2.18182 -3.5,3.36363 -2.22728,1.17046 -5.11364,1.17046 -3.21591,0 -5.64773,-1.44318 -2.42045,-1.45455 -3.78409,-4.125 -1.35227,-2.68182 -1.35227,-6.36364 0,-2.81818 0.79545,-5.03409 0.80682,-2.21591 2.25,-3.76136 1.44318,-1.55682 3.38637,-2.36364 1.94318,-0.81818 4.22727,-0.81818 1.93182,0 3.60227,0.56818 1.67046,0.55682 2.96591,1.59091 1.30682,1.03409 2.14773,2.45454 0.84091,1.42046 1.10227,3.13637 z" />
    <path
       id="path1586"
       style="font-style:normal;font-variant:normal;font-weight:600;font-stretch:normal;font-size:32px;line-height:0%;font-family:Inter;-inkscape-font-specification:'Inter Semi-Bold';letter-spacing:0px;fill:#1c4c8f;fill-opacity:1"
       d="m 524.01616,536.55595 v -23.27273 h 15.13636 v 3.53409 h -10.92045 v 6.31818 h 10.13636 v 3.53409 h -10.13636 v 6.35228 h 11.01136 v 3.53409 z" />
    <path
       id="path1588"
       style="font-style:normal;font-variant:normal;font-weight:600;font-stretch:normal;font-size:32px;line-height:0%;font-family:Inter;-inkscape-font-specification:'Inter Semi-Bold';letter-spacing:0px;fill:#1c4c8f;fill-opacity:1"
       d="m 562.57866,513.28322 v 23.27273 h -3.75 l -10.96591,-15.85228 h -0.19318 v 15.85228 h -4.21591 v -23.27273 h 3.77272 l 10.95455,15.86364 h 0.20455 v -15.86364 z" />
    <path
       id="path1590"
       style="font-style:normal;font-variant:normal;font-weight:600;font-stretch:normal;font-size:32px;line-height:0%;font-family:Inter;-inkscape-font-specification:'Inter Semi-Bold';letter-spacing:0px;fill:#1c4c8f;fill-opacity:1"
       d="m 567.14116,536.55595 v -23.27273 h 15.13636 v 3.53409 h -10.92045 v 6.31818 h 10.13636 v 3.53409 h -10.13636 v 6.35228 h 11.01136 v 3.53409 z" />
    <path
       id="path1592"
       style="font-style:normal;font-variant:normal;font-weight:600;font-stretch:normal;font-size:32px;line-height:0%;font-family:Inter;-inkscape-font-specification:'Inter Semi-Bold';letter-spacing:0px;fill:#1c4c8f;fill-opacity:1"
       d="m 585.55593,516.81731 v -3.53409 h 18.56818 v 3.53409 h -7.19318 v 19.73864 h -4.18182 v -19.73864 z" />
    <path
       id="path1594"
       style="font-style:normal;font-variant:normal;font-weight:600;font-stretch:normal;font-size:32px;line-height:0%;font-family:Inter;-inkscape-font-specification:'Inter Semi-Bold';letter-spacing:0px;fill:#1c4c8f;fill-opacity:1"
       d="m 611.91957,513.28322 v 23.27273 h -4.21591 v -23.27273 z" />
    <path
       id="path1596"
       style="font-style:normal;font-variant:normal;font-weight:600;font-stretch:normal;font-size:32px;line-height:0%;font-family:Inter;-inkscape-font-specification:'Inter Semi-Bold';letter-spacing:0px;fill:#1c4c8f;fill-opacity:1"
       d="m 636.43661,521.13549 h -4.25 q -0.18182,-1.04545 -0.67045,-1.85227 -0.48864,-0.81818 -1.21591,-1.38636 -0.72727,-0.56819 -1.65909,-0.85228 -0.92046,-0.29545 -1.98864,-0.29545 -1.89773,0 -3.36364,0.95454 -1.4659,0.94319 -2.29545,2.77273 -0.82955,1.81818 -0.82955,4.44318 0,2.67046 0.82955,4.5 0.84091,1.81819 2.29545,2.75 1.46591,0.92046 3.35228,0.92046 1.04545,0 1.95454,-0.27273 0.92046,-0.28409 1.64773,-0.82954 0.73864,-0.54546 1.23864,-1.34091 0.51136,-0.79546 0.70454,-1.81819 l 4.25,0.0227 q -0.23863,1.65909 -1.03409,3.11364 -0.78409,1.45454 -2.05682,2.56818 -1.27272,1.10227 -2.97727,1.72727 -1.70455,0.61364 -3.78409,0.61364 -3.06818,0 -5.47727,-1.42046 -2.40909,-1.42045 -3.79546,-4.10227 -1.38636,-2.68182 -1.38636,-6.43182 0,-3.76136 1.39773,-6.43181 1.39772,-2.68182 3.80681,-4.10228 2.40909,-1.42045 5.45455,-1.42045 1.94318,0 3.61364,0.54545 1.67045,0.54546 2.97727,1.60228 1.30682,1.04545 2.14773,2.56818 0.85227,1.51136 1.11363,3.45454 z" />
    <path
       id="path1598"
       style="font-style:normal;font-variant:normal;font-weight:600;font-stretch:normal;font-size:32px;line-height:0%;font-family:Inter;-inkscape-font-specification:'Inter Semi-Bold';letter-spacing:0px;fill:#1c4c8f;fill-opacity:1"
       d="m 652.97638,519.68095 q -0.15909,-1.48864 -1.3409,-2.31818 -1.17046,-0.82955 -3.04546,-0.82955 -1.31818,0 -2.26136,0.39773 -0.94318,0.39772 -1.44318,1.07954 -0.5,0.68182 -0.51137,1.55682 0,0.72727 0.32955,1.26136 0.34091,0.5341 0.92045,0.9091 0.57955,0.36363 1.28409,0.61363 0.70455,0.25 1.42046,0.42046 l 2.18182,0.54545 q 1.31818,0.30682 2.53409,0.82955 1.22727,0.52272 2.19318,1.31818 0.97727,0.79545 1.54545,1.92045 0.56818,1.125 0.56818,2.63637 0,2.04545 -1.04545,3.60227 -1.04545,1.54545 -3.02273,2.42045 -1.96591,0.86364 -4.76136,0.86364 -2.71591,0 -4.71591,-0.84091 -1.98864,-0.84091 -3.11364,-2.45454 -1.11363,-1.61364 -1.20454,-3.93182 h 4.14773 q 0.0909,1.21591 0.75,2.02272 0.65909,0.80682 1.7159,1.20455 1.06819,0.39773 2.38637,0.39773 1.375,0 2.40909,-0.40909 1.04545,-0.42046 1.63636,-1.15909 0.59091,-0.75 0.60228,-1.75 -0.0114,-0.9091 -0.5341,-1.5 -0.52272,-0.60228 -1.4659,-1 -0.93182,-0.4091 -2.18182,-0.72728 l -2.64773,-0.68182 q -2.875,-0.73863 -4.54545,-2.23863 -1.6591,-1.51137 -1.6591,-4.01137 0,-2.05681 1.11364,-3.60227 1.125,-1.54545 3.05682,-2.39773 1.93182,-0.86363 4.375,-0.86363 2.47727,0 4.34091,0.86363 1.875,0.85228 2.94318,2.375 1.06818,1.51137 1.10227,3.47728 z" />
  </g>
</svg>
