<?xml version="1.0" encoding="UTF-8" standalone="no"?>
<!-- Created with Inkscape (http://www.inkscape.org/) -->

<svg
   xmlns:dc="http://purl.org/dc/elements/1.1/"
   xmlns:cc="http://creativecommons.org/ns#"
   xmlns:rdf="http://www.w3.org/1999/02/22-rdf-syntax-ns#"
   xmlns:svg="http://www.w3.org/2000/svg"
   xmlns="http://www.w3.org/2000/svg"
   xmlns:sodipodi="http://sodipodi.sourceforge.net/DTD/sodipodi-0.dtd"
   xmlns:inkscape="http://www.inkscape.org/namespaces/inkscape"
   width="210mm"
   height="297mm"
   viewBox="0 0 210 297"
   version="1.1"
   id="svg8"
   sodipodi:docname="icg.svg"
   inkscape:version="0.92.3 (2405546, 2018-03-11)">
  <defs
     id="defs2" />
  <sodipodi:namedview
     id="base"
     pagecolor="#ffffff"
     bordercolor="#666666"
     borderopacity="1.0"
     inkscape:pageopacity="0.0"
     inkscape:pageshadow="2"
     inkscape:zoom="0.98994949"
     inkscape:cx="477.09289"
     inkscape:cy="617.9467"
     inkscape:document-units="mm"
     inkscape:current-layer="layer1"
     showgrid="false"
     inkscape:window-width="1920"
     inkscape:window-height="1013"
     inkscape:window-x="-9"
     inkscape:window-y="-9"
     inkscape:window-maximized="1" />
  <metadata
     id="metadata5">
    <rdf:RDF>
      <cc:Work
         rdf:about="">
        <dc:format>image/svg+xml</dc:format>
        <dc:type
           rdf:resource="http://purl.org/dc/dcmitype/StillImage" />
        <dc:title></dc:title>
      </cc:Work>
    </rdf:RDF>
  </metadata>
  <g
     inkscape:label="Layer 1"
     inkscape:groupmode="layer"
     id="layer1">
    <rect
       style="opacity:0.75;fill:#1c4c8f;fill-opacity:1;stroke:none;stroke-width:0.17638889;stroke-linecap:round;stroke-linejoin:round;stroke-miterlimit:4;stroke-dasharray:none;stroke-opacity:0.00392157;paint-order:stroke markers fill"
       id="rect815"
       width="302.81635"
       height="79.111778"
       x="-0.5345394"
       y="99.487816" />
    <g
       aria-label="ICG"
       transform="scale(0.26458333)"
       style="font-style:normal;font-variant:normal;font-weight:normal;font-stretch:normal;font-size:40px;line-height:125%;font-family:'Libre Baskerville';-inkscape-font-specification:'Libre Baskerville';letter-spacing:0px;word-spacing:0px;fill:#000000;fill-opacity:1;stroke:none;stroke-width:1px;stroke-linecap:butt;stroke-linejoin:miter;stroke-opacity:1"
       id="flowRoot817">
      <path
         d="m 114.2557,536.55595 h -1.92 v -30.16 h 1.92 z"
         style="font-style:normal;font-variant:normal;font-weight:normal;font-stretch:normal;font-family:'Futura LT Light';-inkscape-font-specification:'Futura LT Light, ';letter-spacing:1px;fill:#ffffff"
         id="path904" />
      <path
         d="m 145.7332,512.55595 q -0.88,-1.08 -2.04,-1.92 -1.16,-0.88 -2.52,-1.52 -1.32,-0.64 -2.76,-0.96 -1.4,-0.36 -2.8,-0.36 -2.84,0 -5.32,1.12 -2.48,1.12 -4.36,3.04 -1.88,1.92 -2.96,4.44 -1.08,2.52 -1.08,5.28 0,2.64 1.04,5.04 1.08,2.4 3,4.28 1.92,1.8 4.44,3 2.56,1.16 5.24,1.16 1.32,0 2.72,-0.32 1.44,-0.36 2.8,-0.96 1.36,-0.6 2.56,-1.44 1.2,-0.84 2.04,-1.88 v 2.64 q -2.16,1.8 -4.72,2.8 -2.52,0.96 -5.32,0.96 -3.16,0 -6,-1.2 -2.84,-1.24 -5,-3.32 -2.16,-2.12 -3.44,-4.92 -1.28,-2.84 -1.28,-6 0,-3.2 1.24,-6.04 1.28,-2.84 3.44,-4.92 2.16,-2.12 5,-3.32 2.88,-1.24 6.08,-1.24 2.76,0 5.36,1.04 2.6,1 4.64,2.88 z"
         style="font-style:normal;font-variant:normal;font-weight:normal;font-stretch:normal;font-family:'Futura LT Light';-inkscape-font-specification:'Futura LT Light, ';letter-spacing:1px;fill:#ffffff"
         id="path906" />
      <path
         d="m 180.58445,522.03595 q 0.04,1.44 -0.08,2.76 -0.12,1.32 -0.48,2.6 -0.32,1.24 -0.96,2.44 -0.64,1.16 -1.64,2.24 -2.16,2.36 -5.2,3.64 -3.04,1.24 -6.24,1.24 -3.12,0 -5.96,-1.2 -2.8,-1.24 -4.92,-3.32 -2.12,-2.12 -3.36,-4.92 -1.24,-2.8 -1.24,-5.92 0,-3.24 1.24,-6.08 1.24,-2.84 3.36,-4.96 2.16,-2.12 5,-3.32 2.88,-1.24 6.12,-1.24 4.12,0 7.4,1.92 3.28,1.88 5.68,5.12 l -1.56,1.24 q -2.04,-3 -5,-4.72 -2.96,-1.76 -6.64,-1.76 -2.76,0 -5.24,1.12 -2.48,1.12 -4.36,3 -1.88,1.88 -3,4.36 -1.08,2.48 -1.08,5.2 0,2.8 1.08,5.28 1.08,2.48 2.92,4.36 1.88,1.84 4.36,2.96 2.48,1.08 5.32,1.08 2.44,0 4.72,-0.88 2.28,-0.92 4.16,-2.44 1.96,-1.68 2.76,-3.6 0.84,-1.92 0.92,-4.4 h -10.8 v -1.8 z"
         style="font-style:normal;font-variant:normal;font-weight:normal;font-stretch:normal;font-family:'Futura LT Light';-inkscape-font-specification:'Futura LT Light, ';letter-spacing:1px;fill:#ffffff"
         id="path908" />
    </g>
    <circle
       style="opacity:1;fill:none;fill-opacity:1;stroke:#ffffff;stroke-width:1;stroke-linecap:round;stroke-linejoin:round;stroke-miterlimit:4;stroke-dasharray:none;stroke-opacity:1;paint-order:stroke markers fill"
       id="path825"
       cx="38.752216"
       cy="137.97385"
       r="13.911805" />
    <flowRoot
       transform="matrix(0.26458333,0,0,0.26458333,28.568846,0.02645833)"
       xml:space="preserve"
       id="flowRoot817-5"
       style="font-style:normal;font-variant:normal;font-weight:normal;font-stretch:normal;font-size:40px;line-height:125%;font-family:'Libre Baskerville';-inkscape-font-specification:'Libre Baskerville';letter-spacing:0px;word-spacing:0px;fill:#000000;fill-opacity:1;stroke:none;stroke-width:1px;stroke-linecap:butt;stroke-linejoin:miter;stroke-opacity:1"><flowRegion
         id="flowRegion819-7"><rect
           id="rect821-8"
           width="645.48749"
           height="112.12694"
           x="109.09647"
           y="500.26572" /></flowRegion><flowPara
         id="flowPara823-6"
         style="font-style:normal;font-variant:normal;font-weight:normal;font-stretch:normal;font-family:'Futura LT Medium';-inkscape-font-specification:'Futura LT Medium, ';letter-spacing:1px;fill:#ffffff">INSTITUTE FOR CANCER GENETICS</flowPara></flowRoot>  </g>
</svg>
